<?xml version="1.0" encoding="UTF-8"?>
<svg version="1.1" xmlns="http://www.w3.org/2000/svg" width="576" height="262">
<path d="M0 0 C7.28560257 8.19419966 7.21560645 21.50037548 6.82763672 31.78759766 C4.79597662 63.32566176 -12.28090939 92.94124645 -35.30859375 113.90234375 C-39.32530654 117.16985776 -42.54531662 119.67792666 -47.74609375 120.33984375 C-50.30859375 119.90234375 -50.30859375 119.90234375 -52.30859375 118.90234375 C-51.94976743 116.27842628 -51.64968347 115.17947914 -49.55859375 113.48046875 C-48.81609375 113.0421875 -48.07359375 112.60390625 -47.30859375 112.15234375 C-37.23575221 105.73946043 -30.16692043 97.5369399 -23.30859375 87.90234375 C-22.75300781 87.12503906 -22.19742188 86.34773438 -21.625 85.546875 C-9.52266719 67.01620281 -2.6717471 42.57819151 -5.78125 20.5546875 C-7.4480851 12.65967816 -10.66689181 5.19899323 -17.43359375 0.40234375 C-21.67803788 -1.81214884 -25.03714098 -2.23576464 -29.80859375 -2.22265625 C-30.74703125 -2.22523437 -31.68546875 -2.2278125 -32.65234375 -2.23046875 C-35.03002005 -2.11158493 -37.03542471 -1.77317347 -39.30859375 -1.09765625 C-38.53515625 -0.95070313 -37.76171875 -0.80375 -36.96484375 -0.65234375 C-28.17057928 1.24147063 -22.10135111 4.06731144 -16.49609375 11.21484375 C-11.76754957 18.67147674 -10.7779941 26.21035525 -10.87109375 34.90234375 C-10.87939209 35.90982666 -10.88769043 36.91730957 -10.89624023 37.95532227 C-11.48067205 64.15908177 -23.78243874 87.78447866 -42.30859375 105.90234375 C-52.82342879 115.73697383 -52.82342879 115.73697383 -60.30859375 115.90234375 C-62.24609375 114.46484375 -62.24609375 114.46484375 -63.30859375 112.90234375 C-62.53515625 112.34546875 -61.76171875 111.78859375 -60.96484375 111.21484375 C-40.05194464 95.89252163 -26.74427445 75.34493008 -22.05859375 49.58984375 C-20.36190485 37.8811618 -21.51516409 26.11333083 -27.78515625 15.77734375 C-31.18026641 11.59874663 -35.98303971 8.75328506 -41.30859375 7.90234375 C-43.56173629 7.98670054 -45.81294914 8.13773574 -48.05859375 8.33984375 C-49.81429687 8.49259766 -49.81429687 8.49259766 -51.60546875 8.6484375 C-52.4975 8.73222656 -53.38953125 8.81601563 -54.30859375 8.90234375 C-53.75171875 8.91652344 -53.19484375 8.93070313 -52.62109375 8.9453125 C-44.29714707 9.46555917 -39.14799261 12.69563071 -33.49609375 18.71484375 C-26.17271758 27.55627739 -25.35403393 38.82625016 -26.30859375 49.90234375 C-28.8185187 68.02382937 -36.80844342 83.19790787 -47.30859375 97.90234375 C-48.62859375 97.57234375 -49.94859375 97.24234375 -51.30859375 96.90234375 C-45.71687173 80.51148848 -45.71687173 80.51148848 -42.62109375 74.02734375 C-36.587903 61.26258648 -33.67271982 45.57100296 -38.30859375 31.90234375 C-40.75740058 26.36124799 -43.19076056 22.331147 -48.30859375 18.90234375 C-51.63463554 17.79335186 -51.63463554 17.79335186 -55.12109375 17.15234375 C-56.28253906 16.91 -57.44398438 16.66765625 -58.640625 16.41796875 C-59.52105469 16.2478125 -60.40148437 16.07765625 -61.30859375 15.90234375 C-75.02683402 33.97376257 -83.75074673 52.65585601 -88.765625 74.8125 C-89.30859375 76.90234375 -89.30859375 76.90234375 -90.30859375 77.90234375 C-91.9747649 77.94298207 -93.6424747 77.94506475 -95.30859375 77.90234375 C-96.27431318 74.84651324 -96.30406837 72.9006316 -95.48828125 69.8125 C-95.18313599 68.64424683 -95.18313599 68.64424683 -94.87182617 67.45239258 C-94.64470947 66.63150146 -94.41759277 65.81061035 -94.18359375 64.96484375 C-93.95712158 64.12397217 -93.73064941 63.28310059 -93.49731445 62.41674805 C-91.55219453 55.38253462 -89.14701655 48.6300097 -86.30859375 41.90234375 C-91.57770372 53.61733159 -95.74108409 65.27875459 -98.30859375 77.90234375 C-99.95859375 77.90234375 -101.60859375 77.90234375 -103.30859375 77.90234375 C-103.80359375 75.42734375 -103.80359375 75.42734375 -104.30859375 72.90234375 C-104.43234375 73.52109375 -104.55609375 74.13984375 -104.68359375 74.77734375 C-105.30859375 76.90234375 -105.30859375 76.90234375 -107.30859375 78.90234375 C-109.43359375 78.52734375 -109.43359375 78.52734375 -111.30859375 77.90234375 C-110.79268322 57.96943705 -100.37757723 40.51178678 -86.359375 27.02734375 C-83.12345581 24.1072952 -80.37162735 22.5061728 -76.30859375 20.90234375 C-75.58671875 20.15984375 -74.86484375 19.41734375 -74.12109375 18.65234375 C-71.59009948 16.1775938 -69.52885212 14.76167346 -66.49609375 13.02734375 C-62.18426963 10.5533463 -58.6711096 7.76451328 -55.09765625 4.3203125 C-53.13542605 2.76509511 -51.73983804 2.36758186 -49.30859375 1.90234375 C-47.14744891 1.09194292 -47.14744891 1.09194292 -46.50390625 -0.9921875 C-44.09199125 -5.24062602 -38.71269402 -6.49779942 -34.30859375 -8.09765625 C-22.50381196 -11.24702635 -9.40832204 -7.4696375 0 0 Z M-80.30859375 30.90234375 C-79.30859375 32.90234375 -79.30859375 32.90234375 -79.30859375 32.90234375 Z M-82.30859375 33.90234375 C-82.96859375 35.55234375 -83.62859375 37.20234375 -84.30859375 38.90234375 C-83.31859375 37.91234375 -82.32859375 36.92234375 -81.30859375 35.90234375 C-81.63859375 35.24234375 -81.96859375 34.58234375 -82.30859375 33.90234375 Z M-92.30859375 38.90234375 C-91.30859375 40.90234375 -91.30859375 40.90234375 -91.30859375 40.90234375 Z M-85.30859375 38.90234375 C-84.30859375 40.90234375 -84.30859375 40.90234375 -84.30859375 40.90234375 Z M-93.30859375 40.90234375 C-92.30859375 42.90234375 -92.30859375 42.90234375 -92.30859375 42.90234375 Z M-96.30859375 45.90234375 C-95.30859375 47.90234375 -95.30859375 47.90234375 -95.30859375 47.90234375 Z M-97.30859375 47.90234375 C-96.30859375 49.90234375 -96.30859375 49.90234375 -96.30859375 49.90234375 Z M-98.30859375 49.90234375 C-97.30859375 52.90234375 -97.30859375 52.90234375 -97.30859375 52.90234375 Z M-99.30859375 52.90234375 C-99.63859375 54.55234375 -99.96859375 56.20234375 -100.30859375 57.90234375 C-99.64859375 57.24234375 -98.98859375 56.58234375 -98.30859375 55.90234375 C-98.63859375 54.91234375 -98.96859375 53.92234375 -99.30859375 52.90234375 Z M-101.30859375 57.90234375 C-101.63859375 59.88234375 -101.96859375 61.86234375 -102.30859375 63.90234375 C-101.64859375 62.91234375 -100.98859375 61.92234375 -100.30859375 60.90234375 C-100.63859375 59.91234375 -100.96859375 58.92234375 -101.30859375 57.90234375 Z " fill="#F08625" transform="translate(196.30859375,69.09765625)"/>
<path d="M0 0 C1.65 0 3.3 0 5 0 C5.31453125 0.7734375 5.6290625 1.546875 5.953125 2.34375 C6.59507812 3.90609375 6.59507812 3.90609375 7.25 5.5 C7.66765625 6.5209375 8.0853125 7.541875 8.515625 8.59375 C10.20099501 12.46123066 12.11331621 16.22663241 14 20 C16.64 13.4 19.28 6.8 22 0 C23.65 0 25.3 0 27 0 C29.475 11.385 29.475 11.385 32 23 C32.33 23 32.66 23 33 23 C33.2475 21.948125 33.495 20.89625 33.75 19.8125 C35.07285759 15.24262833 37.09332956 12.0821643 41.3125 9.6875 C46.0715202 8.47007623 50.30724193 8.78896566 55 10 C56.98 10 58.96 10 61 10 C61 18.25 61 26.5 61 35 C58.69 35 56.38 35 54 35 C53.01 35.495 53.01 35.495 52 36 C47.20273323 36.58526655 43.85715572 36.46753949 39.5625 34.125 C37 32 37 32 35 30 C34.67 31.65 34.34 33.3 34 35 C31.69 35 29.38 35 27 35 C26.01 29.06 25.02 23.12 24 17 C21.24513969 18.37743016 21.05607982 20.22389935 20.09570312 23.015625 C19.87849609 23.67046875 19.66128906 24.3253125 19.4375 25 C17.11218425 31.88781575 17.11218425 31.88781575 16 33 C14.33382885 33.04063832 12.66611905 33.042721 11 33 C9.9936345 30.56495491 8.99473587 28.12729136 8 25.6875 C7.71382813 24.99720703 7.42765625 24.30691406 7.1328125 23.59570312 C5.91089256 20.58454326 5 18.28113016 5 15 C4.34 15 3.68 15 3 15 C2.95101563 15.60585937 2.90203125 16.21171875 2.8515625 16.8359375 C2.3017522 22.99760464 1.32390951 28.95885951 0 35 C-1.98 35 -3.96 35 -6 35 C-5.41510891 27.15335863 -4.03520694 19.57263566 -2.4375 11.875 C-2.08655273 10.15410156 -2.08655273 10.15410156 -1.72851562 8.3984375 C-1.15676376 5.5980202 -0.5805121 2.79861203 0 0 Z M40 19 C39.23339115 21.85893225 39.18531882 24.14861585 40 27 C41.80573006 29.54117641 43.19712914 30.36058497 46 32 C49.09000886 32 50.37823358 31.5107367 52.75 29.5625 C55.49566804 26.13041495 55.36602645 23.3191121 55 19 C53.54366876 15.97061306 53.54366876 15.97061306 51 14 C45.60537557 12.85220757 43.10697649 14.61368025 40 19 Z M32 26 C32.33 26.99 32.66 27.98 33 29 C33.33 28.01 33.66 27.02 34 26 C33.34 26 32.68 26 32 26 Z " fill="#F6F8FA" transform="translate(347,121)"/>
<path d="M0 0 C3 1 3 1 4.38671875 3.40625 C4.81597656 4.4271875 5.24523437 5.448125 5.6875 6.5 C6.12449219 7.5003125 6.56148437 8.500625 7.01171875 9.53125 C9.06760014 16.74714991 8.19073496 22.96125152 5.5625 29.875 C5.29880615 30.59187988 5.0351123 31.30875977 4.76342773 32.04736328 C-5.02420727 57.91169753 -22.15326952 90.0146026 -48 103 C-51.8125 102.1875 -51.8125 102.1875 -55 101 C-55 100.01 -55 99.02 -55 98 C-53.05859375 96.38671875 -53.05859375 96.38671875 -50.4375 94.6875 C-25.07976244 77.55678122 -8.96417599 46.23167893 -2.83984375 16.74609375 C-2.16297078 13.14738581 -1.68480034 9.59438801 -1.4375 5.9375 C-1.10542169 1.10542169 -1.10542169 1.10542169 0 0 Z " fill="#EA872C" transform="translate(211,91)"/>
<path d="M0 0 C6.87414952 0.83323025 12.38863702 4.43329354 16.64453125 9.76171875 C24.68026534 23.03110097 22.21520949 36.81862956 19 51 C18.01 50.67 17.02 50.34 16 50 C13.60837497 44.07204053 12.88614979 37.71251453 12.5625 31.375 C12.21125761 25.279481 10.66365919 20.45798846 8 15 C7.67773438 14.27296875 7.35546875 13.5459375 7.0234375 12.796875 C5.54867219 10.20759239 3.77414403 9.87960664 1 9 C0.01 8.67 -0.98 8.34 -2 8 C-2 8.99 -2 9.98 -2 11 C-1.2575 11.556875 -0.515 12.11375 0.25 12.6875 C3.76519829 15.6434622 5.1962855 18.84843366 7 23 C3.39426104 23 2.58663434 22.18292538 -0.1875 20 C-0.90292969 19.443125 -1.61835938 18.88625 -2.35546875 18.3125 C-2.89816406 17.879375 -3.44085938 17.44625 -4 17 C-5.50033265 20.42933178 -6.44379137 23.81823022 -7.3046875 27.453125 C-8.37846648 31.38629295 -9.77097913 35.2093571 -11.11035156 39.05883789 C-13.02625659 44.7240195 -14.16115201 50.36289332 -15.12890625 56.26953125 C-16 59 -16 59 -17.94921875 60.41015625 C-20.35728852 61.10276298 -21.66619391 60.83350218 -24 60 C-21.95821438 39.17378673 -13.54167672 16.25001206 0 0 Z " fill="#E88528" transform="translate(134,87)"/>
<path d="M0 0 C0.99 0.33 1.98 0.66 3 1 C4.77733753 16.18815706 0.94929158 24.87997097 -8 37 C-8.43248047 37.61294922 -8.86496094 38.22589844 -9.31054688 38.85742188 C-14.8861853 46.75844505 -21.40479052 53.68628845 -28.1875 60.5625 C-28.93588135 61.32498047 -29.6842627 62.08746094 -30.45532227 62.87304688 C-39.33762762 71.6779273 -39.33762762 71.6779273 -45 74 C-48.9375 73.5 -48.9375 73.5 -52 72 C-52.33 71.01 -52.66 70.02 -53 69 C-52.38253906 68.5875 -51.76507813 68.175 -51.12890625 67.75 C-40.76692096 60.68429314 -32.6219424 52.96913956 -25 43 C-24.20722656 41.97261719 -23.41445312 40.94523437 -22.59765625 39.88671875 C-13.39047901 27.64641704 -6.0053569 14.07228572 0 0 Z " fill="#F08923" transform="translate(221,125)"/>
<path d="M0 0 C1.65 0 3.3 0 5 0 C5 0.66 5 1.32 5 2 C6.32 2.33 7.64 2.66 9 3 C8.67 3.33 8.34 3.66 8 4 C8.58007812 3.979375 9.16015625 3.95875 9.7578125 3.9375 C13.34690339 4.03226148 16.00829148 4.16933816 18.828125 6.53125 C25.32938955 14.8055867 26.46285327 23.4239814 26.25 33.6875 C26.24484375 34.69361328 26.2396875 35.69972656 26.234375 36.73632812 C26.18319135 41.58917834 26.00718651 46.23210903 25 51 C24.34 51 23.68 51 23 51 C22.83564453 51.95712891 22.83564453 51.95712891 22.66796875 52.93359375 C22.43013672 54.17302734 22.43013672 54.17302734 22.1875 55.4375 C22.03667969 56.26121094 21.88585937 57.08492187 21.73046875 57.93359375 C21.36888672 58.95646484 21.36888672 58.95646484 21 60 C19.515 60.495 19.515 60.495 18 61 C17.34 60.67 16.68 60.34 16 60 C16 58.02 16 56.04 16 54 C16.99 53.505 16.99 53.505 18 53 C17.86186975 48.85387186 17.71321141 44.70818838 17.5625 40.5625 C17.52318359 39.37849609 17.48386719 38.19449219 17.44335938 36.97460938 C17.40146484 35.84990234 17.35957031 34.72519531 17.31640625 33.56640625 C17.27974854 32.52427979 17.24309082 31.48215332 17.20532227 30.40844727 C17.26484659 28.0500174 17.26484659 28.0500174 16 27 C15.95907063 24.66702567 15.95758277 22.33294775 16 20 C15.34 20 14.68 20 14 20 C13.67 18.02 13.34 16.04 13 14 C12.401875 13.95875 11.80375 13.9175 11.1875 13.875 C9 13 9 13 7.625 10.0625 C6.27898221 6.71307636 6.27898221 6.71307636 2.875 5.8125 C1.92625 5.544375 0.9775 5.27625 0 5 C-0.33 4.01 -0.66 3.02 -1 2 C-0.67 1.34 -0.34 0.68 0 0 Z " fill="#F68520" transform="translate(159,71)"/>
<path d="M0 0 C0.66 0.33 1.32 0.66 2 1 C1.73827835 2.64730684 1.46500448 4.29277835 1.1875 5.9375 C1.03667969 6.85402344 0.88585937 7.77054688 0.73046875 8.71484375 C0.48941406 9.79894531 0.24835938 10.88304687 0 12 C-0.13809082 12.67466309 -0.27618164 13.34932617 -0.41845703 14.04443359 C-2.32359351 21.38315457 -6.87148872 25.63266074 -12.25 30.75 C-13.50103516 31.98556641 -13.50103516 31.98556641 -14.77734375 33.24609375 C-26.41301496 44.5895032 -26.41301496 44.5895032 -31.36328125 45.375 C-33.26245511 45.00962787 -35.13341807 44.50619171 -37 44 C-37.66 43.01 -38.32 42.02 -39 41 C-38.32195312 40.45472656 -37.64390625 39.90945312 -36.9453125 39.34765625 C-23.50474335 28.4574444 -12.61584156 17.24361933 -2.53125 3.1171875 C-1 1 -1 1 0 0 Z " fill="#EF8727" transform="translate(221,159)"/>
<path d="M0 0 C3.72313827 2.64756499 5.40449523 5.6848795 6.8125 10 C6.8125 11.32 6.8125 12.64 6.8125 14 C5.8225 14.495 5.8225 14.495 4.8125 15 C5.06 15.556875 5.3075 16.11375 5.5625 16.6875 C5.8125 19 5.8125 19 4.125 21.625 C1.45361673 24.36858281 -0.55238222 25.77476911 -4.37109375 26.30078125 C-10.23484373 26.33126868 -13.4157164 25.37581451 -17.9375 21.5 C-20.67924073 18.20991112 -20.52442549 14.35657541 -20.46484375 10.28515625 C-20.02517775 6.66255607 -18.60541641 4.67243392 -16.1875 2 C-10.78721062 -1.60019292 -6.14634746 -1.92826587 0 0 Z M-11 4.625 C-13.52253022 6.98337319 -13.52253022 6.98337319 -14.1875 11 C-9.2375 11 -4.2875 11 0.8125 11 C-1.46033208 5.05783489 -1.46033208 5.05783489 -5.0625 3.375 C-8.27080308 2.67306823 -8.27080308 2.67306823 -11 4.625 Z M-14.1875 14 C-12.64707252 18.80304035 -12.64707252 18.80304035 -10.1875 21 C-6.6875 21.33333333 -6.6875 21.33333333 -3.1875 21 C-2.5275 20.34 -1.8675 19.68 -1.1875 19 C-1.1875 17.35 -1.1875 15.7 -1.1875 14 C-5.4775 14 -9.7675 14 -14.1875 14 Z " fill="#F9FAFC" transform="translate(467.1875,131)"/>
<path d="M0 0 C2.4838976 0.57957611 4.4105601 -0.02964813 6.875 -0.5625 C7.875 0.4375 7.875 0.4375 7.98852539 2.84594727 C7.98328857 3.88807373 7.97805176 4.9302002 7.97265625 6.00390625 C7.96943359 7.12861328 7.96621094 8.25332031 7.96289062 9.41210938 C7.95451172 10.59611328 7.94613281 11.78011719 7.9375 13 C7.93298828 14.18787109 7.92847656 15.37574219 7.92382812 16.59960938 C7.91199675 19.54562226 7.89551287 22.49153681 7.875 25.4375 C-7.95226172 27.50411698 -7.95226172 27.50411698 -13.5625 24.75 C-17.60303012 21.10366794 -19.27938768 18.4430627 -19.5625 13 C-19.38931338 8.47455837 -18.21347593 5.85107866 -15.125 2.4375 C-10.26407013 -0.80311991 -5.68427797 -1.50466182 0 0 Z M-13.125 9.4375 C-13.79949963 13.63438661 -13.59340345 15.63947931 -11.4375 19.3125 C-8.85213427 21.68824148 -7.61302188 22.35029945 -4.125 22.4375 C-1.5766725 21.63659707 -0.46276482 20.8934825 1.125 18.75 C2.19512626 15.45044404 2.2381189 12.88712955 1.875 9.4375 C0.41866876 6.40811306 0.41866876 6.40811306 -2.125 4.4375 C-7.52314507 3.2889585 -9.97819842 5.08750959 -13.125 9.4375 Z " fill="#F7F9FA" transform="translate(295.125,130.5625)"/>
<path d="M0 0 C1.375 2.25 1.375 2.25 2 4 C-0.8125 4.6875 -0.8125 4.6875 -4 5 C-5 4 -6 3 -7 2 C-11.12422527 0.77972361 -14.83618118 0.56989304 -18.875 2.0625 C-22.56188528 5.42407187 -23.84683311 8.57044237 -24.375 13.5 C-23.86983295 18.21489249 -22.55897468 21.44102532 -19.1875 24.8125 C-16.28090949 26.39036342 -14.32963797 26.93471298 -11 27 C-8.46514398 25.89437131 -6.34456592 24.50406116 -4 23 C-3.01 22.67 -2.02 22.34 -1 22 C-0.01 22.66 0.98 23.32 2 24 C0.81543033 27.68532787 -1.42904024 29.45158929 -4.8046875 31.23828125 C-10.27277052 33.13556984 -15.96209044 32.67930319 -21.375 30.875 C-25.97460955 27.58956461 -29.58296622 23.53931385 -31 18 C-31.80714239 11.54286092 -30.93620021 6.28279503 -27 1 C-19.17570009 -6.47202101 -8.38616873 -7.15892453 0 0 Z " fill="#F8FBFC" transform="translate(274,125)"/>
<path d="M0 0 C3.65422511 0 5.91025058 0.19512283 8.8828125 2.390625 C15.42435271 9.1303937 18.10586711 18.10309713 18.4375 27.375 C18.17867608 34.3632458 16.54133495 41.20161192 15 48 C13.515 47.505 13.515 47.505 12 47 C9.60837497 41.07204053 8.88614979 34.71251453 8.5625 28.375 C8.21125761 22.279481 6.66365919 17.45798846 4 12 C3.68933594 11.26910156 3.37867188 10.53820312 3.05859375 9.78515625 C2.05932867 7.65605182 2.05932867 7.65605182 -1 7 C-2.1875 4.4375 -2.1875 4.4375 -3 2 C-2.01 2 -1.02 2 0 2 C0 1.34 0 0.68 0 0 Z " fill="#EA892B" transform="translate(138,90)"/>
<path d="M0 0 C0.66 0.5775 1.32 1.155 2 1.75 C2 3.07 2 4.39 2 5.75 C-1.68266103 5.15049704 -5.34543185 4.50241109 -9 3.75 C-11.18490007 6.42642489 -11.18490007 6.42642489 -11 8.75 C-10.32453125 8.93175781 -9.6490625 9.11351562 -8.953125 9.30078125 C-8.06109375 9.55214844 -7.1690625 9.80351562 -6.25 10.0625 C-5.36828125 10.30613281 -4.4865625 10.54976562 -3.578125 10.80078125 C-0.89417167 11.78896407 0.90509022 12.80884507 3 14.75 C3.5 17.6875 3.5 17.6875 3 20.75 C1.1329009 23.05275556 -0.35647741 24.42823871 -3 25.75 C-8.58651317 26.12243421 -12.17196374 25.92943851 -17 22.75 C-17.33 21.76 -17.66 20.77 -18 19.75 C-15 17.75 -15 17.75 -12 17.75 C-11.54625 18.265625 -11.0925 18.78125 -10.625 19.3125 C-10.08875 19.786875 -9.5525 20.26125 -9 20.75 C-6.34533951 20.51956136 -6.34533951 20.51956136 -4 19.75 C-3.67 18.43 -3.34 17.11 -3 15.75 C-4.216875 15.481875 -5.43375 15.21375 -6.6875 14.9375 C-10.59135541 13.96845788 -14.09301797 12.65698203 -17 9.75 C-17.46889952 3.41985646 -17.46889952 3.41985646 -15.6875 0.875 C-10.90058941 -2.31627373 -5.11457103 -2.13107126 0 0 Z " fill="#F7FAFB" transform="translate(427,131.25)"/>
<path d="M0 0 C2.6875 1.6875 2.6875 1.6875 4.6875 4.6875 C1.6875 6.6875 1.6875 6.6875 -0.0625 6.375 C-0.805 6.148125 -1.5475 5.92125 -2.3125 5.6875 C-5.83194126 4.86317358 -5.83194126 4.86317358 -9.3125 4.6875 C-11.46110073 6.19152051 -12.14802492 7.35854985 -13.3125 9.6875 C-13.59726418 12.9622881 -13.63954877 15.05061555 -12.125 18 C-9.77577343 20.18721094 -8.52475337 20.61279643 -5.3125 20.6875 C-3.7965625 19.9140625 -3.7965625 19.9140625 -2.25 19.125 C0.6875 17.6875 0.6875 17.6875 3.0625 18.5 C3.59875 18.891875 4.135 19.28375 4.6875 19.6875 C1.0625 24.5625 1.0625 24.5625 -2.3125 25.6875 C-6.9719918 26.22888857 -10.41803068 26.11817041 -14.6875 24.0625 C-18.63456917 20.49134218 -20.07964172 17.51710078 -20.75 12.25 C-20.21996956 7.93403784 -19.09914775 5.02630087 -16.3125 1.6875 C-10.93303282 -2.01835517 -6.04810658 -2.39641959 0 0 Z " fill="#F8FBFC" transform="translate(334.3125,131.3125)"/>
<path d="M0 0 C1 2 1 2 0.8125 3.9375 C-0.22787485 6.57845155 -1.76079166 7.32059375 -4 9 C-4.79623822 11.09415804 -4.79623822 11.09415804 -5 13 C-3.88625 12.0409375 -3.88625 12.0409375 -2.75 11.0625 C-0.2888879 9.21666593 1.03466926 8.43930826 4 8 C1.11937652 13.56920539 -2.21334476 17.6930949 -6.6875 22.0625 C-7.61852539 22.97829834 -7.61852539 22.97829834 -8.56835938 23.91259766 C-19.59103249 34.56613141 -19.59103249 34.56613141 -26.4375 35.4375 C-29 35 -29 35 -31 34 C-30.64117368 31.37608253 -30.34108972 30.27713539 -28.25 28.578125 C-27.13625 27.92070312 -27.13625 27.92070312 -26 27.25 C-14.91208024 20.19086625 -7.22304377 10.83456565 0 0 Z " fill="#ED8525" transform="translate(175,154)"/>
<path d="M0 0 C3 1 3 1 4.6875 3.625 C7.10420829 9.6038356 6.2203045 16.66012597 6 23 C5.34 23 4.68 23 4 23 C4.061875 24.093125 4.12375 25.18625 4.1875 26.3125 C4 30 4 30 2.5 31.75 C2.005 32.1625 1.51 32.575 1 33 C1 33.99 1 34.98 1 36 C0.34 36 -0.32 36 -1 36 C-1.33 36.99 -1.66 37.98 -2 39 C-4.96703505 34.11753726 -5.20391326 31.22330238 -4.3125 25.625 C-4.10083912 24.22016088 -3.88992503 22.81520908 -3.6796875 21.41015625 C-3.56592773 20.68973145 -3.45216797 19.96930664 -3.33496094 19.22705078 C-2.67243232 14.8221047 -2.20284872 10.39073855 -1.69848633 5.96533203 C-1.11086633 1.11086633 -1.11086633 1.11086633 0 0 Z " fill="#FC8419" transform="translate(211,91)"/>
<path d="M0 0 C1.98 0 3.96 0 6 0 C6 2.64 6 5.28 6 8 C7.98 8 9.96 8 12 8 C12 9.65 12 11.3 12 13 C9.03 12.505 9.03 12.505 6 12 C6 18.93 6 25.86 6 33 C4.02 33 2.04 33 0 33 C-0.33 26.4 -0.66 19.8 -1 13 C-1.99 12.67 -2.98 12.34 -4 12 C-4 10.68 -4 9.36 -4 8 C-2.68 8 -1.36 8 0 8 C0 5.36 0 2.72 0 0 Z " fill="#F6F9FA" transform="translate(435,123)"/>
<path d="M0 0 C3.37462715 0.54723683 5.08235 1.0549 8 3 C6.68 3 5.36 3 4 3 C4 3.66 4 4.32 4 5 C3.01 5.495 3.01 5.495 2 6 C2.33 6.99 2.66 7.98 3 9 C1.35 8.67 -0.3 8.34 -2 8 C-2 8.99 -2 9.98 -2 11 C-1.2575 11.556875 -0.515 12.11375 0.25 12.6875 C3.76519829 15.6434622 5.1962855 18.84843366 7 23 C3.39426104 23 2.58663434 22.18292538 -0.1875 20 C-0.90292969 19.443125 -1.61835938 18.88625 -2.35546875 18.3125 C-2.89816406 17.879375 -3.44085938 17.44625 -4 17 C-5.29486243 19.95968556 -6.25212652 22.866054 -7 26 C-7.74787348 29.133946 -8.70513757 32.04031444 -10 35 C-10.33 35 -10.66 35 -11 35 C-10.67 31.7 -10.34 28.4 -10 25 C-11.32 25.33 -12.64 25.66 -14 26 C-11.23780504 16.2510766 -6.47200271 7.79485162 0 0 Z " fill="#E0892F" transform="translate(134,87)"/>
<path d="M0 0 C3.38616749 0.26867576 6.77189532 0.4451204 10.1640625 0.62109375 C11.09992188 0.74613281 12.03578125 0.87117188 13 1 C13.495 1.99 13.495 1.99 14 3 C13.10796875 2.98839844 12.2159375 2.97679688 11.296875 2.96484375 C10.12640625 2.95582031 8.9559375 2.94679688 7.75 2.9375 C6.58984375 2.92589844 5.4296875 2.91429688 4.234375 2.90234375 C1.59022872 2.98217908 -0.49826091 3.21356222 -3 4 C-1.80503906 4.25523438 -1.80503906 4.25523438 -0.5859375 4.515625 C5.41603385 5.88833864 10.17757342 7.11526747 15 11 C12.04335481 12.4783226 9.25770263 12.06032783 6 12 C6.33 11.34 6.66 10.68 7 10 C6.01 9.67 5.02 9.34 4 9 C4 8.34 4 7.68 4 7 C2.35 7 0.7 7 -1 7 C-0.67 8.65 -0.34 10.3 0 12 C0.94875 12.226875 1.8975 12.45375 2.875 12.6875 C6 14 6 14 7.375 16.625 C7.684375 17.800625 7.684375 17.800625 8 19 C7.39671875 18.65066406 6.7934375 18.30132812 6.171875 17.94140625 C5.37265625 17.48636719 4.5734375 17.03132813 3.75 16.5625 C2.96109375 16.11003906 2.1721875 15.65757813 1.359375 15.19140625 C-4.42448803 12.27074694 -9.45876561 13.29748191 -15.78515625 13.94140625 C-19 14 -19 14 -22 12 C-19.04720651 9.45731671 -16.87021181 7.6672779 -13 7 C-10.83736927 6.1955029 -10.83736927 6.1955029 -10.25 4.125 C-7.88897338 0.11125474 -4.3579853 -1.45266177 0 0 Z " fill="#F98620" transform="translate(160,64)"/>
<path d="M0 0 C1.98 0 3.96 0 6 0 C6 12.21 6 24.42 6 37 C4.02 37 2.04 37 0 37 C0 24.79 0 12.58 0 0 Z " fill="#F2F4F7" transform="translate(306,119)"/>
<path d="M0 0 C0.99 0 1.98 0 3 0 C3.33 1.98 3.66 3.96 4 6 C4.66 6 5.32 6 6 6 C6.144375 7.134375 6.28875 8.26875 6.4375 9.4375 C6.61171478 12.80777201 6.61171478 12.80777201 8 14 C8.15786308 15.85174706 8.25107356 17.7090911 8.31640625 19.56640625 C8.37924805 21.2534668 8.37924805 21.2534668 8.44335938 22.97460938 C8.48267578 24.15861328 8.52199219 25.34261719 8.5625 26.5625 C8.60568359 27.75037109 8.64886719 28.93824219 8.69335938 30.16210938 C8.79983546 33.10794784 8.90184841 36.0538743 9 39 C7.515 39.495 7.515 39.495 6 40 C6 41.98 6 43.96 6 46 C7.32 46 8.64 46 10 46 C10.66 42.7 11.32 39.4 12 36 C12.66 36.33 13.32 36.66 14 37 C13.41834429 42.4790532 12.04448406 47.18405683 10.0625 52.3125 C9.79759766 53.02728516 9.53269531 53.74207031 9.25976562 54.47851562 C7.26208682 59.73791318 7.26208682 59.73791318 5 62 C5.33 59.69 5.66 57.38 6 55 C3 53.66666667 3 53.66666667 0 55 C0.18175781 54.3915625 0.36351562 53.783125 0.55078125 53.15625 C2.19546745 47.42093403 3.55273565 41.66686802 4.6875 35.8125 C4.93886719 34.51957031 5.19023437 33.22664063 5.44921875 31.89453125 C7.01693024 20.80936558 4.90523647 10.04405563 0 0 Z " fill="#E9872D" transform="translate(169,85)"/>
<path d="M0 0 C4.05775837 0.23869167 6.507149 0.65714713 9.875 3 C12.66693697 6.94155808 12.88646726 10.26258838 13 15 C13.66 15 14.32 15 15 15 C14.1875 18.4375 14.1875 18.4375 13 22 C12.01 22.33 11.02 22.66 10 23 C7.21840961 21.60920481 7.07774078 20.06287872 6 17.1875 C4.28366102 12.45909038 4.28366102 12.45909038 2 8 C1.01 7.67 0.02 7.34 -1 7 C-2.1875 4.4375 -2.1875 4.4375 -3 2 C-2.01 2 -1.02 2 0 2 C0 1.34 0 0.68 0 0 Z " fill="#F18624" transform="translate(138,90)"/>
<path d="M0 0 C-0.33 1.65 -0.66 3.3 -1 5 C-2.11375 5.2475 -3.2275 5.495 -4.375 5.75 C-7.93131944 6.59551962 -7.93131944 6.59551962 -9.1875 8.59375 C-10.31655363 11.93748575 -10.46639587 15.25410066 -10.625 18.75 C-10.66367187 19.44738281 -10.70234375 20.14476562 -10.7421875 20.86328125 C-10.83598624 22.57510818 -10.91906174 24.28751682 -11 26 C-12.65 26 -14.3 26 -16 26 C-16 17.75 -16 9.5 -16 1 C-10.41167406 0.3790749 -5.51858969 -0.1174168 0 0 Z " fill="#F5F7F9" transform="translate(492,130)"/>
<path d="M0 0 C0.66 0 1.32 0 2 0 C2.40998222 6.55971551 1.44381663 11.75968017 -2.58203125 17.09765625 C-4.29967683 18.97995631 -5.89086958 20.56929884 -8 22 C-10.9375 21.9375 -10.9375 21.9375 -13 21 C-13 22.32 -13 23.64 -13 25 C-13.99 24.67 -14.98 24.34 -16 24 C-16.8515625 22.16015625 -16.8515625 22.16015625 -17 20 C-14.40135542 15.45725666 -10.50803834 12.50446574 -6 10 C-5.34 9.01 -4.68 8.02 -4 7 C-3.67 7 -3.34 7 -3 7 C-2.690625 6.030625 -2.38125 5.06125 -2.0625 4.0625 C-1 1 -1 1 0 0 Z " fill="#F58621" transform="translate(217,167)"/>
<path d="M0 0 C2.37252369 2.02532511 3.527117 3.28842759 4.5625 6.1875 C1.75 6.875 1.75 6.875 -1.4375 7.1875 C-2.4402285 6.19023596 -3.43999065 5.18998446 -4.4375 4.1875 C-8.75240014 2.86627089 -13.06854586 2.72327462 -17.3125 4.3125 C-20.87261864 6.44857118 -21.98563665 7.3158644 -23.4375 11.1875 C-23.95895881 14.8480376 -24.2500073 18.49583335 -24.4375 22.1875 C-26.54842854 18.10637148 -27.8428933 15.51163189 -26.4375 11 C-24.60838049 5.8734311 -21.70633756 1.60257005 -17.4375 -1.8125 C-11.37132458 -3.62171021 -5.54800789 -2.92531325 0 0 Z " fill="#F8FBFD" transform="translate(271.4375,122.8125)"/>
<path d="M0 0 C2 1 2 1 2.75 3.1875 C3.24985697 8.81089091 0.34394431 13.54544262 -2.375 18.3125 C-2.96023437 19.36050781 -3.54546875 20.40851563 -4.1484375 21.48828125 C-6 24 -6 24 -8.2265625 24.85546875 C-8.81179687 24.90316406 -9.39703125 24.95085937 -10 25 C-10.33 24.01 -10.66 23.02 -11 22 C-11.66 21.67 -12.32 21.34 -13 21 C-12.01 19.515 -12.01 19.515 -11 18 C-10.34 18 -9.68 18 -9 18 C-8.34 15.69 -7.68 13.38 -7 11 C-6.01 11 -5.02 11 -4 11 C-3.96261719 10.37351563 -3.92523438 9.74703125 -3.88671875 9.1015625 C-3.82097656 8.28429687 -3.75523437 7.46703125 -3.6875 6.625 C-3.62949219 5.81289062 -3.57148438 5.00078125 -3.51171875 4.1640625 C-3 2 -3 2 0 0 Z " fill="#F28522" transform="translate(172,138)"/>
<path d="M0 0 C0 0.99 0 1.98 0 3 C-0.66 3.66 -1.32 4.32 -2 5 C-1.89950159 7.01571737 -1.89950159 7.01571737 -1.5625 9.25 C-1.48019002 12.42407877 -1.62861598 13.57639011 -3.75 15.99609375 C-6.74706313 18.18820242 -9.32265287 19.98146578 -13.12109375 20.0234375 C-15 19.5625 -15 19.5625 -18 18 C-18.33 17.01 -18.66 16.02 -19 15 C-18.07380859 14.38125 -18.07380859 14.38125 -17.12890625 13.75 C-10.99992633 9.57072602 -5.43061303 5.05020777 0 0 Z " fill="#F6851D" transform="translate(187,179)"/>
<path d="M0 0 C0.33 0 0.66 0 1 0 C0.814375 1.11375 0.62875 2.2275 0.4375 3.375 C-0.31680657 6.82568861 -0.31680657 6.82568861 1 9 C0.01 9.495 0.01 9.495 -1 10 C-1.65555119 12.52733235 -1.65555119 12.52733235 -2 15 C-1.34 15 -0.68 15 0 15 C0.33 13.35 0.66 11.7 1 10 C1.66 10 2.32 10 3 10 C3 9.34 3 8.68 3 8 C3.66 8 4.32 8 5 8 C3.54488901 13.36885778 0.99676879 17.36286359 -2.125 21.875 C-2.59292969 22.56335938 -3.06085938 23.25171875 -3.54296875 23.9609375 C-4.68901697 25.64492672 -5.84364479 27.3230716 -7 29 C-8.32 28.67 -9.64 28.34 -11 28 C-7.74404736 18.45591891 -4.43151193 9.07871692 0 0 Z " fill="#CB843B" transform="translate(156,138)"/>
<path d="M0 0 C0.33 0.66 0.66 1.32 1 2 C0.67 2.99 0.34 3.98 0 5 C3.96 5 7.92 5 12 5 C12 5.99 12 6.98 12 8 C10.3125 9.125 10.3125 9.125 8 10 C6.31727014 9.37498605 4.65369357 8.69822617 3 8 C0.01102664 7.53202942 -2.98560123 7.24955807 -6 7 C-6 7.99 -6 8.98 -6 10 C-8.31 10.66 -10.62 11.32 -13 12 C-13.2165625 12.8971875 -13.2165625 12.8971875 -13.4375 13.8125 C-13.8872439 15.56150404 -14.42892341 17.28677023 -15 19 C-15.99 19.33 -16.98 19.66 -18 20 C-17.814375 19.38125 -17.62875 18.7625 -17.4375 18.125 C-16.76313824 15.95839822 -16.76313824 15.95839822 -18 14 C-15.21489225 9.1796212 -13.03365185 7.26000695 -8 5 C-6.32576317 3.67618483 -4.65788785 2.34423339 -3 1 C-2.01 0.67 -1.02 0.34 0 0 Z " fill="#E17E24" transform="translate(140,76)"/>
<path d="M0 0 C1.16141517 3.37358911 0.86843082 5.11402549 -0.51171875 8.37109375 C-0.85783203 9.19287109 -1.20394531 10.01464844 -1.56054688 10.86132812 C-1.93244141 11.71146484 -2.30433594 12.56160156 -2.6875 13.4375 C-3.21633789 14.7069043 -3.21633789 14.7069043 -3.75585938 16.00195312 C-5.69496444 20.52889494 -7.64725521 24.31425121 -11 28 C-11 26.68 -11 25.36 -11 24 C-12.32 23.34 -13.64 22.68 -15 22 C-15.103125 22.7425 -15.20625 23.485 -15.3125 24.25 C-16.04933797 27.1973519 -16.94799142 28.78383074 -19 31 C-19.66 31 -20.32 31 -21 31 C-19.50640515 26.15713185 -17.54966433 21.68649104 -15.375 17.125 C-15.05015625 16.43664062 -14.7253125 15.74828125 -14.390625 15.0390625 C-13.59676528 13.35794781 -12.79880442 11.67877079 -12 10 C-10.86416544 13.71727674 -11.33329974 15.47051709 -13 19 C-10.69 18.34 -8.38 17.68 -6 17 C-6 15.68 -6 14.36 -6 13 C-5.34 13 -4.68 13 -4 13 C-4 11.35 -4 9.7 -4 8 C-3.34 8 -2.68 8 -2 8 C-1.7834375 6.576875 -1.7834375 6.576875 -1.5625 5.125 C-1 2 -1 2 0 0 Z " fill="#E28830" transform="translate(197,123)"/>
<path d="M0 0 C0.02692484 2.29160319 0.04636124 4.58329546 0.0625 6.875 C0.07410156 8.15117187 0.08570313 9.42734375 0.09765625 10.7421875 C0 14 0 14 -1 16 C-1.66 16 -2.32 16 -3 16 C-3.33 17.98 -3.66 19.96 -4 22 C-5.65 22.33 -7.3 22.66 -9 23 C-9.33 21.02 -9.66 19.04 -10 17 C-9.34 17 -8.68 17 -8 17 C-7.34 14.69 -6.68 12.38 -6 10 C-5.34 10 -4.68 10 -4 10 C-4.061875 8.72125 -4.12375 7.4425 -4.1875 6.125 C-4.29296875 3.9453125 -4.29296875 3.9453125 -4 2 C-1 0 -1 0 0 0 Z " fill="#FC8419" transform="translate(223,127)"/>
<path d="M0 0 C2.71507834 4.0726175 2.61387615 7.30001069 2 12 C-0.05521858 20.72550388 -2.0706173 27.96789175 -10 33 C-10.33 33 -10.66 33 -11 33 C-11 31.02 -11 29.04 -11 27 C-11.66 27 -12.32 27 -13 27 C-13.66 28.32 -14.32 29.64 -15 31 C-13.9318153 25.88634986 -12.76892524 20.92772031 -11 16 C-10 20 -9 24 -8 28 C-7.67 27.34 -7.34 26.68 -7 26 C-6.34 26 -5.68 26 -5 26 C-5.33 24.68 -5.66 23.36 -6 22 C-5.01 21.34 -4.02 20.68 -3 20 C-2.26393501 16.43230448 -2.26393501 16.43230448 -2 13 C-1.34 13 -0.68 13 0 13 C0 8.71 0 4.42 0 0 Z " fill="#EC8728" transform="translate(217,101)"/>
<path d="M0 0 C6.75 1.75 6.75 1.75 9 4 C9.31537716 8.33643601 9.44897847 10.32653229 7 14 C7.66 14 8.32 14 9 14 C9 14.66 9 15.32 9 16 C8.34 16.33 7.68 16.66 7 17 C7 17.66 7 18.32 7 19 C5.68 18.67 4.36 18.34 3 18 C3 14.7 3 11.4 3 8 C2.34 8 1.68 8 1 8 C0.67 5.36 0.34 2.72 0 0 Z " fill="#FB8418" transform="translate(158,92)"/>
<path d="M0 0 C5.39368914 9.70864045 3.66950836 22.65565512 1 33 C0.67 33 0.34 33 0 33 C-0.04898438 31.83082031 -0.09796875 30.66164063 -0.1484375 29.45703125 C-0.22350171 27.90883196 -0.29904795 26.36065599 -0.375 24.8125 C-0.42140625 23.65911133 -0.42140625 23.65911133 -0.46875 22.48242188 C-0.68616111 18.26102289 -1.09743072 14.85927672 -3 11 C-2.01 11.33 -1.02 11.66 0 12 C0 11.34 0 10.68 0 10 C-0.66 10 -1.32 10 -2 10 C-1.855625 9.46375 -1.71125 8.9275 -1.5625 8.375 C-0.90546252 5.60084173 -0.44780052 2.81474612 0 0 Z " fill="#EA8A33" transform="translate(167,96)"/>
<path d="M0 0 C1.052677 3.15803099 0.97280582 4.04304838 0.2578125 7.16015625 C0.07863281 7.95357422 -0.10054688 8.74699219 -0.28515625 9.56445312 C-0.47980469 10.38880859 -0.67445312 11.21316406 -0.875 12.0625 C-1.06191406 12.89072266 -1.24882813 13.71894531 -1.44140625 14.57226562 C-2.84527726 20.69055451 -2.84527726 20.69055451 -4 23 C-2.68 23 -1.36 23 0 23 C0.03738281 22.29875 0.07476562 21.5975 0.11328125 20.875 C0.54492297 14.64581749 1.58126559 9.74449422 4 4 C4.35470438 2.67219215 4.6937566 1.33981486 5 0 C5.66 0 6.32 0 7 0 C4.0703125 11.71875 4.0703125 11.71875 3.53613281 13.84375 C3.16879796 15.32111857 2.80914807 16.80041313 2.45605469 18.28125 C1.10532407 23.89467593 1.10532407 23.89467593 0 25 C-1.66617115 25.04063832 -3.33388095 25.042721 -5 25 C-6.04675195 21.78491097 -5.92570403 19.76759919 -5.0390625 16.5234375 C-4.81476563 15.688125 -4.59046875 14.8528125 -4.359375 13.9921875 C-4.11703125 13.12851563 -3.8746875 12.26484375 -3.625 11.375 C-3.39039062 10.50359375 -3.15578125 9.6321875 -2.9140625 8.734375 C-1.17426658 2.34853316 -1.17426658 2.34853316 0 0 Z " fill="#D0833A" transform="translate(106,122)"/>
<path d="M0 0 C0.66 1.32 1.32 2.64 2 4 C2.99 4 3.98 4 5 4 C5.33 4.99 5.66 5.98 6 7 C5.34 7 4.68 7 4 7 C4 8.65 4 10.3 4 12 C3.34 12 2.68 12 2 12 C2 13.32 2 14.64 2 16 C-1 18 -1 18 -5 18 C-4.34 14.7 -3.68 11.4 -3 8 C-2.01 8 -1.02 8 0 8 C0 5.36 0 2.72 0 0 Z " fill="#FB841B" transform="translate(189,124)"/>
<path d="M0 0 C7.67094905 0.1551111 12.88671509 1.25300799 19 6 C16.01386614 6.75929472 13.02485781 7.4118332 10 8 C10.33 8.99 10.66 9.98 11 11 C10.35933594 10.79503906 9.71867188 10.59007813 9.05859375 10.37890625 C4.02712149 8.81172636 -0.75988003 7.56957826 -6 7 C-6 6.34 -6 5.68 -6 5 C-0.4755043 4.77902017 3.73904814 5.12108862 9 7 C9.99 6.67 10.98 6.34 12 6 C12 5.01 12 4.02 12 3 C8.04 3 4.08 3 0 3 C0 2.01 0 1.02 0 0 Z " fill="#E28837" transform="translate(140,78)"/>
<path d="M0 0 C-0.57584432 2.38564077 -1.22227595 4.66682784 -2 7 C-2.99 7 -3.98 7 -5 7 C-5.33 7.99 -5.66 8.98 -6 10 C-7.64551962 10.71727778 -9.31422289 11.38325228 -11 12 C-11.66 12.66 -12.32 13.32 -13 14 C-13.66 13.67 -14.32 13.34 -15 13 C-13.69083343 8.96340307 -12.34367797 7.48079333 -9 5 C-8.87625 4.319375 -8.7525 3.63875 -8.625 2.9375 C-8.41875 2.298125 -8.2125 1.65875 -8 1 C-2.71910112 -1.35955056 -2.71910112 -1.35955056 0 0 Z " fill="#FA841B" transform="translate(212,158)"/>
<path d="M0 0 C1.125 1.5625 1.125 1.5625 2 4 C1.125 7.75 1.125 7.75 0 11 C-0.66 11 -1.32 11 -2 11 C-2 14.63 -2 18.26 -2 22 C-3.65 22 -5.3 22 -7 22 C-6.505 20.515 -6.505 20.515 -6 19 C-6 18.67 -6 18.34 -6 18 C-5.57817411 12.7271764 -4.9145422 7.97780972 -3 3 C-2.34 3 -1.68 3 -1 3 C-0.67 2.01 -0.34 1.02 0 0 Z " fill="#F8851C" transform="translate(119,124)"/>
<path d="M0 0 C0.33 0.99 0.66 1.98 1 3 C0.01 3.495 0.01 3.495 -1 4 C-1.33 4.99 -1.66 5.98 -2 7 C-2.66 7 -3.32 7 -4 7 C-4 7.99 -4 8.98 -4 10 C-5.918125 9.8453125 -5.918125 9.8453125 -7.875 9.6875 C-8.95394531 9.60048828 -8.95394531 9.60048828 -10.0546875 9.51171875 C-12 9 -12 9 -14 6 C-9.17970402 1.05919662 -9.17970402 1.05919662 -5.8203125 0.890625 C-3.86309607 1.15530196 -1.92721531 1.56803795 0 2 C0 1.34 0 0.68 0 0 Z " fill="#EC8826" transform="translate(196,194)"/>
<path d="M0 0 C4.4571874 0.26218749 6.51522698 0.57711289 9.9375 3.5625 C10.618125 4.366875 11.29875 5.17125 12 6 C11.67 6.66 11.34 7.32 11 8 C10.34 7.34 9.68 6.68 9 6 C5.37206002 7.86566488 5.37206002 7.86566488 3 11 C2.67 10.01 2.34 9.02 2 8 C1.01 7.67 0.02 7.34 -1 7 C-2.1875 4.4375 -2.1875 4.4375 -3 2 C-2.01 2 -1.02 2 0 2 C0 1.34 0 0.68 0 0 Z " fill="#EB882C" transform="translate(138,90)"/>
<path d="M0 0 C1.65 0.33 3.3 0.66 5 1 C4.67 1.66 4.34 2.32 4 3 C3.34 3 2.68 3 2 3 C1.67 6.63 1.34 10.26 1 14 C0.34 14 -0.32 14 -1 14 C-1 14.66 -1 15.32 -1 16 C-1.66 16.33 -2.32 16.66 -3 17 C-3.65213292 19.02463255 -3.65213292 19.02463255 -4 21 C-4.66 21 -5.32 21 -6 21 C-6.22316078 17.0946863 -5.51847822 14.57288993 -4 11 C-3.63128912 9.34080104 -3.28718326 7.6752357 -3 6 C-2.34 6 -1.68 6 -1 6 C-0.67 4.02 -0.34 2.04 0 0 Z " fill="#FA841C" transform="translate(160,132)"/>
<path d="M0 0 C0.99 0.33 1.98 0.66 3 1 C2.01 2.98 1.02 4.96 0 7 C0.33 6.67 0.66 6.34 1 6 C2 5 3 4 4 3 C4.33 3.66 4.66 4.32 5 5 C4.34873208 6.6281698 3.62966519 8.22960163 2.875 9.8125 C1.00964889 13.8957254 1.00964889 13.8957254 2.25 18.125 C2.8275 18.74375 3.405 19.3625 4 20 C2.1875 19.875 2.1875 19.875 0 19 C-2.90944868 14.63582698 -3.55557546 11.18537099 -3 6 C-1.5 2.5625 -1.5 2.5625 0 0 Z " fill="#EEF3F5" transform="translate(317,134)"/>
<path d="M0 0 C0.33 0 0.66 0 1 0 C1.20086443 3.71599191 1.1519437 4.77208445 -1 8 C-1.62816674 9.87193195 -1.62816674 9.87193195 -2.0703125 11.90625 C-2.33134766 13.02193359 -2.33134766 13.02193359 -2.59765625 14.16015625 C-2.77167969 14.93230469 -2.94570312 15.70445312 -3.125 16.5 C-3.30675781 17.27214844 -3.48851563 18.04429687 -3.67578125 18.83984375 C-4.39270041 21.95008704 -5 24.79781695 -5 28 C-4.34 28.33 -3.68 28.66 -3 29 C-4.32 30.32 -5.64 31.64 -7 33 C-5.35 33 -3.7 33 -2 33 C-5 35 -5 35 -7.1875 34.625 C-7.785625 34.41875 -8.38375 34.2125 -9 34 C-7.82815663 22.0471976 -4.58625911 11.07590639 0 0 Z " fill="#C87E3B" transform="translate(119,113)"/>
<path d="M0 0 C0.33 0.66 0.66 1.32 1 2 C0 4 0 4 -2 4.9375 C-4.34608221 5.8891846 -4.34608221 5.8891846 -5 9 C-5.99 9 -6.98 9 -8 9 C-8 9.66 -8 10.32 -8 11 C-8.99 11 -9.98 11 -11 11 C-11 11.99 -11 12.98 -11 14 C-10.01 14.33 -9.02 14.66 -8 15 C-8 14.34 -8 13.68 -8 13 C-6.68 13.33 -5.36 13.66 -4 14 C-7.82491487 16.69993991 -10.32818984 17.41527201 -15 17 C-15.66 16.67 -16.32 16.34 -17 16 C-16.64281443 13.3153472 -16.31017444 12.25426317 -14.1796875 10.5078125 C-13.41914063 10.05148438 -12.65859375 9.59515625 -11.875 9.125 C-7.5386376 6.4052335 -3.81443865 3.4086473 0 0 Z " fill="#DA8838" transform="translate(161,172)"/>
<path d="M0 0 C0.66 0.33 1.32 0.66 2 1 C1.67 3.97 1.34 6.94 1 10 C0.34 10 -0.32 10 -1 10 C-0.7215625 11.0828125 -0.7215625 11.0828125 -0.4375 12.1875 C0.03755988 15.24145639 -0.33266702 16.99700161 -1 20 C-1.22558594 21.16015625 -1.45117188 22.3203125 -1.68359375 23.515625 C-1.93238281 24.74796875 -2.18117188 25.9803125 -2.4375 27.25 C-2.68371094 28.49265625 -2.92992187 29.7353125 -3.18359375 31.015625 C-3.45300781 32.00046875 -3.72242188 32.9853125 -4 34 C-4.99 34.495 -4.99 34.495 -6 35 C-5.41510891 27.15335863 -4.03520694 19.57263566 -2.4375 11.875 C-2.08655273 10.15410156 -2.08655273 10.15410156 -1.72851562 8.3984375 C-1.15676376 5.5980202 -0.5805121 2.79861203 0 0 Z " fill="#EEF1F5" transform="translate(347,121)"/>
<path d="M0 0 C0.99 0 1.98 0 3 0 C3.33 1.98 3.66 3.96 4 6 C4.66 6 5.32 6 6 6 C6.144375 7.134375 6.28875 8.26875 6.4375 9.4375 C6.61171478 12.80777201 6.61171478 12.80777201 8 14 C8.09907392 15.51433551 8.13079656 17.03320963 8.1328125 18.55078125 C8.13474609 19.94006836 8.13474609 19.94006836 8.13671875 21.35742188 C8.13285156 22.33259766 8.12898437 23.30777344 8.125 24.3125 C8.12886719 25.27607422 8.13273438 26.23964844 8.13671875 27.23242188 C8.13542969 28.16248047 8.13414062 29.09253906 8.1328125 30.05078125 C8.13168457 30.90325439 8.13055664 31.75572754 8.12939453 32.6340332 C8.00605736 34.88924179 7.62910755 36.83685711 7 39 C6.34 39 5.68 39 5 39 C5.16048828 37.16888672 5.16048828 37.16888672 5.32421875 35.30078125 C6.30051299 22.61928726 5.68322428 11.63707828 0 0 Z " fill="#DC8B3C" transform="translate(169,85)"/>
<path d="M0 0 C0.66 0.33 1.32 0.66 2 1 C0.90109517 7.91663627 -0.56569185 14.42736799 -3 21 C-4.12758089 17.61725734 -3.81750262 16.23221777 -3.0625 12.8125 C-2.86785156 11.91144531 -2.67320312 11.01039063 -2.47265625 10.08203125 C-2.23869141 9.05142578 -2.23869141 9.05142578 -2 8 C-5.22404978 9.66954819 -5.22404978 9.66954819 -5.6875 12.625 C-5.790625 13.40875 -5.89375 14.1925 -6 15 C-7.32 14.34 -8.64 13.68 -10 13 C-8.5217985 11.02010587 -7.0424882 9.04105782 -5.5625 7.0625 C-5.14162109 6.49853516 -4.72074219 5.93457031 -4.28710938 5.35351562 C-1.11328125 1.11328125 -1.11328125 1.11328125 0 0 Z " fill="#DF8A33" transform="translate(221,159)"/>
<path d="M0 0 C0.33 0 0.66 0 1 0 C0.67 2.97 0.34 5.94 0 9 C-0.99 9 -1.98 9 -3 9 C-3.144375 9.78375 -3.28875 10.5675 -3.4375 11.375 C-4 14 -4 14 -5 16 C-5.66 16 -6.32 16 -7 16 C-7 20.26826873 -6.62386487 20.93882432 -4 24 C-4.99 24.99 -5.98 25.98 -7 27 C-7 26.01 -7 25.02 -7 24 C-8.98 24 -10.96 24 -13 24 C-10.75170669 19.21218367 -7.7973343 14.84812614 -4.97265625 10.38671875 C-2.98518238 6.97456064 -1.47703913 3.65324098 0 0 Z " fill="#DF8532" transform="translate(168,140)"/>
<path d="M0 0 C0 3 0 3 -2.375 5.6875 C-5.35677146 9.17335316 -6.99205128 12.34204948 -7 17 C-6.18733823 19.98112105 -5.1557791 22.74024045 -3.9453125 25.58203125 C-3 28 -3 28 -3 31 C-7.62202548 25.60763694 -9.49352492 21.42849681 -9.31640625 14.34375 C-8.58873944 8.9536255 -6.22664824 5.11513476 -2.25 1.5 C-1.5075 1.005 -0.765 0.51 0 0 Z " fill="#E6EAEC" transform="translate(252,122)"/>
<path d="M0 0 C3.37462715 0.54723683 5.08235 1.0549 8 3 C6.68 3 5.36 3 4 3 C4 3.66 4 4.32 4 5 C3.01 5.495 3.01 5.495 2 6 C2.33 6.99 2.66 7.98 3 9 C1.35 8.67 -0.3 8.34 -2 8 C-2.33 8.99 -2.66 9.98 -3 11 C-5.0625 11.6875 -5.0625 11.6875 -7 12 C-5.63855967 6.80177328 -3.53269829 3.90456127 0 0 Z " fill="#E08532" transform="translate(134,87)"/>
<path d="M0 0 C0.99 0.33 1.98 0.66 3 1 C4.02093166 13.63402927 3.35929545 21.99712215 -5 32 C-5.33 32 -5.66 32 -6 32 C-6 29.69 -6 27.38 -6 25 C-4.68 24.67 -3.36 24.34 -2 24 C-1.67 22.02 -1.34 20.04 -1 18 C-0.34 18 0.32 18 1 18 C1 13.05 1 8.1 1 3 C0.01 3.495 0.01 3.495 -1 4 C-0.67 2.68 -0.34 1.36 0 0 Z " fill="#DD8C3D" transform="translate(221,125)"/>
<path d="M0 0 C3.38616749 0.26867576 6.77189532 0.4451204 10.1640625 0.62109375 C11.09992188 0.74613281 12.03578125 0.87117188 13 1 C13.33 1.66 13.66 2.32 14 3 C13.10796875 2.98839844 12.2159375 2.97679688 11.296875 2.96484375 C10.12640625 2.95582031 8.9559375 2.94679688 7.75 2.9375 C6.58984375 2.92589844 5.4296875 2.91429688 4.234375 2.90234375 C1.59022872 2.98217908 -0.49826091 3.21356222 -3 4 C-1.35 4.33 0.3 4.66 2 5 C2 5.33 2 5.66 2 6 C-2.29 6 -6.58 6 -11 6 C-8.56528347 1.13056693 -5.58424025 -1.86141342 0 0 Z " fill="#D18B40" transform="translate(160,64)"/>
<path d="M0 0 C0.33 0 0.66 0 1 0 C0.814375 1.11375 0.62875 2.2275 0.4375 3.375 C-0.31680657 6.82568861 -0.31680657 6.82568861 1 9 C0.01 9.495 0.01 9.495 -1 10 C-1.65555119 12.52733235 -1.65555119 12.52733235 -2 15 C-1.34 15.33 -0.68 15.66 0 16 C-1.3125 18.5 -1.3125 18.5 -3 21 C-3.99 21 -4.98 21 -6 21 C-7.59592878 16.57849239 -6.43575214 13.93481724 -4.59960938 9.87304688 C-4.25736328 9.15181641 -3.91511719 8.43058594 -3.5625 7.6875 C-3.22412109 6.94693359 -2.88574219 6.20636719 -2.53710938 5.44335938 C-1.70342822 3.62335123 -0.85330937 1.81088847 0 0 Z " fill="#E5862B" transform="translate(156,138)"/>
<path d="M0 0 C1.65 0 3.3 0 5 0 C5 0.66 5 1.32 5 2 C6.32 2.33 7.64 2.66 9 3 C8.67 3.33 8.34 3.66 8 4 C8.99 4.66 9.98 5.32 11 6 C11.1875 8.625 11.1875 8.625 11 11 C10.01 11.495 10.01 11.495 9 12 C8.62875 11.21625 8.2575 10.4325 7.875 9.625 C5.55100387 6.37140542 3.73413945 6.13647722 0 5 C-0.33 4.01 -0.66 3.02 -1 2 C-0.67 1.34 -0.34 0.68 0 0 Z " fill="#FC8319" transform="translate(159,71)"/>
<path d="M0 0 C0.66 0 1.32 0 2 0 C1.979375 1.2375 1.95875 2.475 1.9375 3.75 C1.93233319 6.6640825 2.06984442 9.20953327 3 12 C2.34 12 1.68 12 1 12 C1 13.32 1 14.64 1 16 C0.01 15.67 -0.98 15.34 -2 15 C-3.2019586 8.77166905 -2.93161919 5.62870885 0 0 Z " fill="#FB8318" transform="translate(204,128)"/>
<path d="M0 0 C-0.33 0.99 -0.66 1.98 -1 3 C-1.99 2.67 -2.98 2.34 -4 2 C-4.061875 2.763125 -4.12375 3.52625 -4.1875 4.3125 C-5.2582969 7.85436667 -6.90960169 8.17745741 -10 10 C-10 11.32 -10 12.64 -10 14 C-11.32 13.67 -12.64 13.34 -14 13 C-13.41850235 9.07489083 -11.70742568 6.84992176 -9 4 C-3.20064725 0 -3.20064725 0 0 0 Z " fill="#F7831A" transform="translate(182,172)"/>
<path d="M0 0 C0.33 0 0.66 0 1 0 C0.52013969 5.56890517 -0.29915181 10.67067568 -2 16 C-1.01 16 -0.02 16 1 16 C1.33 13.69 1.66 11.38 2 9 C2.33 9 2.66 9 3 9 C2.67 11.97 2.34 14.94 2 18 C0.35 18 -1.3 18 -3 18 C-4.1662139 13.80162995 -3.74753875 10.93119937 -2.625 6.75 C-2.34914063 5.69296875 -2.07328125 4.6359375 -1.7890625 3.546875 C-1 1 -1 1 0 0 Z " fill="#D58635" transform="translate(96,129)"/>
<path d="M0 0 C1.5843317 0.08768248 3.16753567 0.19587329 4.75 0.3125 C6.07257813 0.39951172 6.07257813 0.39951172 7.421875 0.48828125 C10.32303774 1.0641181 11.79225607 2.07596148 14 4 C12.35 4.33 10.7 4.66 9 5 C9 6.98 9 8.96 9 11 C6.03 9.35 3.06 7.7 0 6 C0 5.67 0 5.34 0 5 C2.31 4.34 4.62 3.68 7 3 C4.69 2.34 2.38 1.68 0 1 C0 0.67 0 0.34 0 0 Z " fill="#E88B33" transform="translate(174,61)"/>
<path d="M0 0 C0.33 2.31 0.66 4.62 1 7 C-0.65 6.67 -2.3 6.34 -4 6 C-4 7.32 -4 8.64 -4 10 C-7 9 -7 9 -8 7.25 C-8 5 -8 5 -5.75 2.25 C-3 0 -3 0 0 0 Z " fill="#FB841B" transform="translate(208,182)"/>
<path d="M0 0 C0 3 0 3 -1 5 C-0.34 5.33 0.32 5.66 1 6 C-0.375 7.5 -0.375 7.5 -2 9 C-2.66 9 -3.32 9 -4 9 C-4.33 10.32 -4.66 11.64 -5 13 C-3.35 13 -1.7 13 0 13 C-0.99 13.99 -1.98 14.98 -3 16 C-3 15.34 -3 14.68 -3 14 C-4.65 13.67 -6.3 13.34 -8 13 C-8 8.21861363 -7.16772988 7.615713 -4 4.25 C-3.2575 3.45078125 -2.515 2.6515625 -1.75 1.828125 C-1.1725 1.22484375 -0.595 0.6215625 0 0 Z " fill="#E28632" transform="translate(198,166)"/>
<path d="M0 0 C1.65 0 3.3 0 5 0 C7.28571429 8.42857143 7.28571429 8.42857143 7 13 C6.34 13 5.68 13 5 13 C4.8046875 10.98177083 4.609375 8.96354167 4.4140625 6.9453125 C4.13625251 4.77331755 4.13625251 4.77331755 2 3 C1.01 5.31 0.02 7.62 -1 10 C-1.66 10 -2.32 10 -3 10 C-2.49287967 6.28111761 -1.88391785 3.26545761 0 0 Z " fill="#EEF3F6" transform="translate(369,121)"/>
<path d="M0 0 C0.66 0 1.32 0 2 0 C1.84931915 4.97246821 -0.85621928 7.26353376 -4.2109375 10.546875 C-6 12 -6 12 -9 13 C-9 11.68 -9 10.36 -9 9 C-8.34 8.67 -7.68 8.34 -7 8 C-7.33 7.34 -7.66 6.68 -8 6 C-6 5 -4 4 -2 3 C-1.67 2.34 -1.34 1.68 -1 1 C-0.67 0.67 -0.34 0.34 0 0 Z " fill="#EB862C" transform="translate(167,171)"/>
<path d="M0 0 C0.66 0.33 1.32 0.66 2 1 C1.67 1.66 1.34 2.32 1 3 C1.99 3 2.98 3 4 3 C4 4.65 4 6.3 4 8 C2.68 8 1.36 8 0 8 C0.33 9.32 0.66 10.64 1 12 C-1.475 11.01 -1.475 11.01 -4 10 C-3.34 7.36 -2.68 4.72 -2 2 C-1.34 2 -0.68 2 0 2 C0 1.34 0 0.68 0 0 Z " fill="#F9851B" transform="translate(197,144)"/>
<path d="M0 0 C0.99 0.33 1.98 0.66 3 1 C2.67 1.99 2.34 2.98 2 4 C1.34 3.67 0.68 3.34 0 3 C0.01160156 4.00160156 0.02320313 5.00320312 0.03515625 6.03515625 C0.04454398 7.37760228 0.05364312 8.72005036 0.0625 10.0625 C0.07410156 11.37347656 0.08570313 12.68445313 0.09765625 14.03515625 C0.00452335 17.8163519 -0.38551274 21.27920707 -1 25 C-1.99 25.33 -2.98 25.66 -4 26 C-3.37448812 20.16188916 -2.69950876 14.3296723 -2 8.5 C-1.9170166 7.78134766 -1.8340332 7.06269531 -1.74853516 6.32226562 C-1.11436768 1.11436768 -1.11436768 1.11436768 0 0 Z " fill="#E1872E" transform="translate(211,91)"/>
<path d="M0 0 C1 2 1 2 0.125 5 C-1 8 -1 8 -2 10 C-3.32 9.67 -4.64 9.34 -6 9 C-6.33 9.66 -6.66 10.32 -7 11 C-9.7696959 11.72886734 -12.12862585 12 -15 12 C-11.13129563 8.45461674 -7.92173653 5.91400865 -3 4 C-1.19651922 1.98682781 -1.19651922 1.98682781 0 0 Z " fill="#D3832F" transform="translate(123,86)"/>
<path d="M0 0 C0 0.66 0 1.32 0 2 C-0.99 2.33 -1.98 2.66 -3 3 C-0.03 3.495 -0.03 3.495 3 4 C3 4.33 3 4.66 3 5 C0.89850989 5.38971999 -1.2063482 5.76131477 -3.3125 6.125 C-4.48425781 6.33382812 -5.65601563 6.54265625 -6.86328125 6.7578125 C-10 7 -10 7 -13 5 C-8.38296331 1.02421841 -6.03904704 0 0 0 Z " fill="#E7902F" transform="translate(151,71)"/>
<path d="M0 0 C1.98 0 3.96 0 6 0 C6.66 2.64 7.32 5.28 8 8 C6.35 8.33 4.7 8.66 3 9 C3 8.34 3 7.68 3 7 C2.34 7 1.68 7 1 7 C0.67 4.69 0.34 2.38 0 0 Z " fill="#FB841A" transform="translate(182,65)"/>
<path d="M0 0 C0.33 0 0.66 0 1 0 C1 6.6 1 13.2 1 20 C0.34 20 -0.32 20 -1 20 C-1.33 21.98 -1.66 23.96 -2 26 C-2.66 26 -3.32 26 -4 26 C-3.81824219 25.06994141 -3.81824219 25.06994141 -3.6328125 24.12109375 C-2.11743265 16.11289411 -1.02538266 8.08306968 0 0 Z " fill="#DB8634" transform="translate(161,112)"/>
<path d="M0 0 C4 1 4 1 5.3125 2.75 C6.1568112 5.51320029 5.76443018 7.24805136 5 10 C3.35 10 1.7 10 0 10 C0 6.7 0 3.4 0 0 Z " fill="#EC862C" transform="translate(211,94)"/>
<path d="M0 0 C2.5625 2.125 2.5625 2.125 5 5 C4.8125 8.3125 4.8125 8.3125 4 11 C3.34 10.01 2.68 9.02 2 8 C0.66923011 7.65657551 -0.66431979 7.32380126 -2 7 C-3.75 5.4375 -3.75 5.4375 -5 4 C-2 2 -2 2 0 2 C0 1.34 0 0.68 0 0 Z " fill="#FB8419" transform="translate(146,95)"/>
<path d="M0 0 C1.32 0 2.64 0 4 0 C2.7238222 3.57329784 0.88780727 4.79246029 -2.28125 6.71875 C-5.1266533 8.83986882 -7.1908227 11.62430079 -9.38671875 14.390625 C-11 16 -11 16 -14 16 C-13.57589844 15.59910156 -13.15179688 15.19820312 -12.71484375 14.78515625 C-8.52452248 10.72376794 -5.02195017 6.50632018 -1.67578125 1.72265625 C-1.12277344 1.15417969 -0.56976563 0.58570313 0 0 Z " fill="#E28B31" transform="translate(210,173)"/>
<path d="M0 0 C0.66 0 1.32 0 2 0 C2 7.26 2 14.52 2 22 C1.34 22.33 0.68 22.66 0 23 C-0.79773542 15.16992004 -1.14500285 7.80363479 0 0 Z " fill="#ECEFF1" transform="translate(406,132)"/>
<path d="M0 0 C2.70596543 4.05894814 2.65161186 7.31219041 2 12 C0.64867765 17.10015208 -1.17531816 22.05380888 -3 27 C-4.13732426 23.59598052 -3.83989957 21.22543336 -3.0625 17.75 C-2.77052734 16.41195312 -2.77052734 16.41195312 -2.47265625 15.046875 C-2.31667969 14.37140625 -2.16070312 13.6959375 -2 13 C-1.34 13 -0.68 13 0 13 C0 8.71 0 4.42 0 0 Z " fill="#DB8941" transform="translate(217,101)"/>
<path d="M0 0 C0 0.99 0 1.98 0 3 C-0.66 3.66 -1.32 4.32 -2 5 C-2.24253813 7.21072977 -2.24253813 7.21072977 -2.125 9.625 C-2.09792969 10.85089844 -2.09792969 10.85089844 -2.0703125 12.1015625 C-2.04710937 12.72804687 -2.02390625 13.35453125 -2 14 C-2.99 14 -3.98 14 -5 14 C-5 12.68 -5 11.36 -5 10 C-5.99 10 -6.98 10 -8 10 C-8.99 10 -9.98 10 -11 10 C-5.555 5.05 -5.555 5.05 0 0 Z " fill="#E38736" transform="translate(187,179)"/>
<path d="M0 0 C0.33 0 0.66 0 1 0 C1 1.98 1 3.96 1 6 C0.34 6 -0.32 6 -1 6 C-1.144375 6.78375 -1.28875 7.5675 -1.4375 8.375 C-2 11 -2 11 -3 13 C-3.66 13 -4.32 13 -5 13 C-4.67 15.31 -4.34 17.62 -4 20 C-5.65 20 -7.3 20 -9 20 C-7.55676531 15.26210835 -5.62773267 11.01141849 -3.375 6.625 C-2.88773438 5.66400391 -2.88773438 5.66400391 -2.390625 4.68359375 C-1.59742593 3.12052499 -0.79922969 1.55999378 0 0 Z " fill="#E28835" transform="translate(218,131)"/>
<path d="M0 0 C4.62 0 9.24 0 14 0 C14 0.99 14 1.98 14 3 C12.328125 4.1171875 12.328125 4.1171875 10 5 C7.421875 4.3203125 7.421875 4.3203125 4.75 3.125 C3.85796875 2.73570313 2.9659375 2.34640625 2.046875 1.9453125 C1.37140625 1.63335937 0.6959375 1.32140625 0 1 C0 0.67 0 0.34 0 0 Z " fill="#FC8418" transform="translate(138,81)"/>
<path d="M0 0 C0.99 0 1.98 0 3 0 C2.46246904 6.18160604 0.45417612 11.326858 -2 17 C-2.33 17 -2.66 17 -3 17 C-2.88648483 15.18674449 -2.75887039 13.37436643 -2.625 11.5625 C-2.55539063 10.55316406 -2.48578125 9.54382813 -2.4140625 8.50390625 C-2.27742187 7.67761719 -2.14078125 6.85132813 -2 6 C-1.34 5.67 -0.68 5.34 0 5 C-0.66 4.34 -1.32 3.68 -2 3 C-1.34 2.01 -0.68 1.02 0 0 Z " fill="#E18631" transform="translate(164,129)"/>
<path d="M0 0 C1.12067256 7.11778518 0.7958955 13.02420757 -1 20 C-1.33 20 -1.66 20 -2 20 C-2.16737799 17.20837429 -2.33393402 14.41670379 -2.5 11.625 C-2.54769531 10.8309375 -2.59539062 10.036875 -2.64453125 9.21875 C-3 3.2265625 -3 3.2265625 -3 1 C-1 0 -1 0 0 0 Z " fill="#EE8927" transform="translate(169,109)"/>
<path d="M0 0 C8.13952903 -0.61046468 13.5737569 -0.2922002 20 5 C17.04335481 6.4783226 14.25770263 6.06032783 11 6 C11.33 5.34 11.66 4.68 12 4 C11.01 3.67 10.02 3.34 9 3 C9 2.34 9 1.68 9 1 C6.03 1 3.06 1 0 1 C0 0.67 0 0.34 0 0 Z " fill="#E68630" transform="translate(155,70)"/>
<path d="M0 0 C0.66 0 1.32 0 2 0 C2 3.63 2 7.26 2 11 C1.01 11.33 0.02 11.66 -1 12 C-1.66 11.67 -2.32 11.34 -3 11 C-3 9.02 -3 7.04 -3 5 C-2.34 4.67 -1.68 4.34 -1 4 C-0.34786708 1.97536745 -0.34786708 1.97536745 0 0 Z " fill="#FD8418" transform="translate(178,120)"/>
<path d="M0 0 C2 2 2 2 2.25 5.1875 C1.98913553 9.16568315 1.23018014 12.23257332 0 16 C-0.99 16 -1.98 16 -3 16 C-2.68806536 14.27073126 -2.37542638 12.54158956 -2.0625 10.8125 C-1.88847656 9.84957031 -1.71445313 8.88664063 -1.53515625 7.89453125 C-1.0476265 5.25760028 -0.53328895 2.6280095 0 0 Z " fill="#F6841E" transform="translate(97,129)"/>
<path d="M0 0 C3.99500618 1.3697164 6.80009492 3.25722422 10 6 C9.67 6.66 9.34 7.32 9 8 C8.01 7.67 7.02 7.34 6 7 C4.68 7.33 3.36 7.66 2 8 C1.34 5.36 0.68 2.72 0 0 Z " fill="#EE882A" transform="translate(188,65)"/>
<path d="M0 0 C0.99 0.33 1.98 0.66 3 1 C0.49671934 5.47014404 -2.1108544 9.76946537 -5 14 C-5.66 12.68 -6.32 11.36 -7 10 C-6.401875 9.278125 -5.80375 8.55625 -5.1875 7.8125 C-3.22577804 5.29028605 -1.58276017 2.7698303 0 0 Z " fill="#EF8C29" transform="translate(117,94)"/>
<path d="M0 0 C0.66 0.33 1.32 0.66 2 1 C1.6875 2.9375 1.6875 2.9375 1 5 C0.01 5.33 -0.98 5.66 -2 6 C-2 6.99 -2 7.98 -2 9 C-2.33 9.99 -2.66 10.98 -3 12 C-3.99 12.33 -4.98 12.66 -6 13 C-5.814375 12.38125 -5.62875 11.7625 -5.4375 11.125 C-4.76313824 8.95839822 -4.76313824 8.95839822 -6 7 C-2.25 1.125 -2.25 1.125 0 0 Z " fill="#D3802A" transform="translate(128,83)"/>
<path d="M0 0 C0.66 0.33 1.32 0.66 2 1 C1.51679152 7.2054142 0.66681876 12.99945246 -1 19 C-1.66 19 -2.32 19 -3 19 C-2.03644647 9.58997722 -2.03644647 9.58997722 -1 5 C-0.34 5 0.32 5 1 5 C0.67 3.35 0.34 1.7 0 0 Z " fill="#EDF1F5" transform="translate(348,135)"/>
<path d="M0 0 C0.66 0.33 1.32 0.66 2 1 C1.67 2.32 1.34 3.64 1 5 C1.99 4.34 2.98 3.68 4 3 C6.32387947 2.60612212 8.65793749 2.26513915 11 2 C9.16822965 4.02803146 7.58467552 5.70766224 5.125 6.9375 C1.9102624 7.03205111 -0.25744342 5.55827078 -3 4 C-3 3.34 -3 2.68 -3 2 C-2.01 1.34 -1.02 0.68 0 0 Z " fill="#D48C37" transform="translate(171,192)"/>
<path d="M0 0 C0.33 0.66 0.66 1.32 1 2 C0.690625 2.86625 0.38125 3.7325 0.0625 4.625 C-1.21255004 8.67515894 -1.14569797 11.77475879 -1 16 C-1.99 15.67 -2.98 15.34 -4 15 C-4.51211281 8.59858988 -4.11888494 5.01989102 0 0 Z " fill="#E9EBEE" transform="translate(280,133)"/>
<path d="M0 0 C0.33 0 0.66 0 1 0 C1 4.62 1 9.24 1 14 C-0.65 14 -2.3 14 -4 14 C-3.525625 12.989375 -3.05125 11.97875 -2.5625 10.9375 C-1.0063672 7.34077795 -0.3987054 3.90731291 0 0 Z " fill="#F7FCFD" transform="translate(480,142)"/>
<path d="M0 0 C1.30660357 4.29727397 0.6596762 7.60215865 0 12 C0.66 12 1.32 12 2 12 C2 10.68 2 9.36 2 8 C2.66 8 3.32 8 4 8 C3.67 9.65 3.34 11.3 3 13 C1.68 13.33 0.36 13.66 -1 14 C-2.59789351 9.04653013 -1.28306814 4.86717585 0 0 Z " fill="#D0873D" transform="translate(87,134)"/>
<path d="M0 0 C0.99 0.33 1.98 0.66 3 1 C3 1.66 3 2.32 3 3 C3.66 3 4.32 3 5 3 C5 4.65 5 6.3 5 8 C5.66 8 6.32 8 7 8 C7 11.3 7 14.6 7 18 C6.67 18 6.34 18 6 18 C5.85304687 17.18208984 5.85304687 17.18208984 5.703125 16.34765625 C4.54000257 10.48190953 2.61460097 5.36881656 0 0 Z " fill="#E18839" transform="translate(154,92)"/>
<path d="M0 0 C0.70125 0.144375 1.4025 0.28875 2.125 0.4375 C1.4134375 1.0871875 1.4134375 1.0871875 0.6875 1.75 C-1.11186957 3.46059613 -1.11186957 3.46059613 -1.875 6.4375 C-4.185 6.7675 -6.495 7.0975 -8.875 7.4375 C-3.7809081 0.57535558 -3.7809081 0.57535558 0 0 Z " fill="#E58530" transform="translate(155.875,164.5625)"/>
<path d="M0 0 C0.66 0.33 1.32 0.66 2 1 C1.360625 2.010625 0.72125 3.02125 0.0625 4.0625 C-2.06848956 7.75219924 -2.65539613 10.77860255 -3 15 C-3.66 15 -4.32 15 -5 15 C-5.42277492 8.86976372 -4.99795398 5.96715495 -1 1 C-0.67 0.67 -0.34 0.34 0 0 Z " fill="#E9ECEF" transform="translate(252,127)"/>
<path d="M0 0 C0.66 0 1.32 0 2 0 C1.97679687 0.60328125 1.95359375 1.2065625 1.9296875 1.828125 C1.91164063 2.62734375 1.89359375 3.4265625 1.875 4.25 C1.84019531 5.43335938 1.84019531 5.43335938 1.8046875 6.640625 C2.0171622 9.20731941 2.71345895 10.7916067 4 13 C3.01 13.495 3.01 13.495 2 14 C-2.09725159 8.09513742 -2.09725159 8.09513742 -1.8203125 4.9765625 C-1.25 3.0625 -1.25 3.0625 0 0 Z " fill="#EEF1F2" transform="translate(281,138)"/>
<path d="M0 0 C0.66 0.33 1.32 0.66 2 1 C2 2.32 2 3.64 2 5 C1.360625 5.12375 0.72125 5.2475 0.0625 5.375 C-0.9584375 5.684375 -0.9584375 5.684375 -2 6 C-2.33 6.66 -2.66 7.32 -3 8 C-3 7.34 -3 6.68 -3 6 C-3.66 6 -4.32 6 -5 6 C-5 5.01 -5 4.02 -5 3 C-2.625 1.25 -2.625 1.25 0 0 Z " fill="#F2801A" transform="translate(113,96)"/>
<path d="M0 0 C0.33 0.66 0.66 1.32 1 2 C0.26821134 4.07196631 -0.55899003 6.1108552 -1.4375 8.125 C-1.91058594 9.22070312 -2.38367188 10.31640625 -2.87109375 11.4453125 C-3.24363281 12.28835937 -3.61617187 13.13140625 -4 14 C-5.04449911 10.86650268 -4.93423645 10.01031744 -4 7 C-4.66 6.67 -5.32 6.34 -6 6 C-5.38125 5.938125 -4.7625 5.87625 -4.125 5.8125 C-1.72238859 5.171081 -1.72238859 5.171081 -0.75 2.4375 C-0.5025 1.633125 -0.255 0.82875 0 0 Z " fill="#DD8C36" transform="translate(179,133)"/>
<path d="M0 0 C1 3 1 3 -0.109375 5.41015625 C-0.65078125 6.28542969 -1.1921875 7.16070312 -1.75 8.0625 C-2.28109375 8.94035156 -2.8121875 9.81820312 -3.359375 10.72265625 C-5 13 -5 13 -8 15 C-6.62712658 11.30123909 -4.93644547 8.0485524 -2.875 4.6875 C-2.33617188 3.80449219 -1.79734375 2.92148438 -1.2421875 2.01171875 C-0.83226563 1.34785156 -0.42234375 0.68398437 0 0 Z " fill="#D78533" transform="translate(119,97)"/>
<path d="M0 0 C-0.66 1.32 -1.32 2.64 -2 4 C-3.98 4 -5.96 4 -8 4 C-8.33 3.01 -8.66 2.02 -9 1 C-5.57367167 -0.61798838 -3.61944899 -1.34053666 0 0 Z " fill="#FB851B" transform="translate(159,85)"/>
<path d="M0 0 C0.33 0 0.66 0 1 0 C0.67 2.31 0.34 4.62 0 7 C-1.65 7 -3.3 7 -5 7 C-4.67 5.35 -4.34 3.7 -4 2 C-2.68 2 -1.36 2 0 2 C0 1.34 0 0.68 0 0 Z " fill="#FB841A" transform="translate(198,172)"/>
<path d="M0 0 C0.66 0.33 1.32 0.66 2 1 C1.34 4.63 0.68 8.26 0 12 C-0.33 12 -0.66 12 -1 12 C-1 10.02 -1 8.04 -1 6 C-1.99 5.67 -2.98 5.34 -4 5 C-2.68 3.35 -1.36 1.7 0 0 Z " fill="#C3853C" transform="translate(221,159)"/>
<path d="M0 0 C0.33 0.66 0.66 1.32 1 2 C0.0625 4.625 0.0625 4.625 -1 7 C-0.34 7.33 0.32 7.66 1 8 C0 9 0 9 -2.5625 9.0625 C-3.366875 9.041875 -4.17125 9.02125 -5 9 C-4.50769231 3.46153846 -4.50769231 3.46153846 -1.9375 1.125 C-1.298125 0.75375 -0.65875 0.3825 0 0 Z " fill="#FBFDFE" transform="translate(363,145)"/>
<path d="M0 0 C0 3.63 0 7.26 0 11 C-2.54563558 8.85211998 -3.87986066 7.72083605 -4.4375 4.375 C-4.293125 3.59125 -4.14875 2.8075 -4 2 C-1 0 -1 0 0 0 Z " fill="#E9811F" transform="translate(223,127)"/>
<path d="M0 0 C8.35010941 1.33041575 8.35010941 1.33041575 11.0625 4.125 C11.371875 4.74375 11.68125 5.3625 12 6 C11.67 6.66 11.34 7.32 11 8 C10.45730469 7.65066406 9.91460937 7.30132812 9.35546875 6.94140625 C8.64003906 6.48636719 7.92460937 6.03132813 7.1875 5.5625 C6.47980469 5.11003906 5.77210938 4.65757813 5.04296875 4.19140625 C2.91865448 2.85913661 2.91865448 2.85913661 0 2 C0 1.34 0 0.68 0 0 Z " fill="#E48D39" transform="translate(156,75)"/>
<path d="M0 0 C1.32 0.66 2.64 1.32 4 2 C2.68 3.32 1.36 4.64 0 6 C1.65 6 3.3 6 5 6 C2 8 2 8 -0.1875 7.625 C-0.785625 7.41875 -1.38375 7.2125 -2 7 C-2.125 4.625 -2.125 4.625 -2 2 C-1.34 1.34 -0.68 0.68 0 0 Z " fill="#D9872C" transform="translate(112,140)"/>
<path d="M0 0 C1 3 1 3 0.07421875 4.9375 C-0.61220703 5.9584375 -0.61220703 5.9584375 -1.3125 7 C-1.98732422 8.0209375 -1.98732422 8.0209375 -2.67578125 9.0625 C-3.11277344 9.701875 -3.54976563 10.34125 -4 11 C-4.66 11.99 -5.32 12.98 -6 14 C-6.36539443 9.71422781 -5.48423598 7.65507938 -3 4.1875 C-2.1646875 3.00220703 -2.1646875 3.00220703 -1.3125 1.79296875 C-0.879375 1.20128906 -0.44625 0.60960938 0 0 Z " fill="#D97D26" transform="translate(107,106)"/>
<path d="M0 0 C0.99 0.33 1.98 0.66 3 1 C2.67 1.99 2.34 2.98 2 4 C1.34 3.67 0.68 3.34 0 3 C0.02320313 3.68707031 0.04640625 4.37414062 0.0703125 5.08203125 C0.08835938 5.98308594 0.10640625 6.88414063 0.125 7.8125 C0.14820313 8.70582031 0.17140625 9.59914063 0.1953125 10.51953125 C0 13 0 13 -2 16 C-1.85975781 13.52039864 -1.7130815 11.04147598 -1.5625 8.5625 C-1.52318359 7.85544922 -1.48386719 7.14839844 -1.44335938 6.41992188 C-1.11328125 1.11328125 -1.11328125 1.11328125 0 0 Z " fill="#D08945" transform="translate(211,91)"/>
<path d="M0 0 C0.66 0.33 1.32 0.66 2 1 C1.67 1.66 1.34 2.32 1 3 C3.64 2.67 6.28 2.34 9 2 C7.9375 3.5625 7.9375 3.5625 6 5 C2.3125 4.6875 2.3125 4.6875 -1 4 C-1 1 -1 1 0 0 Z " fill="#D28E43" transform="translate(135,180)"/>
<path d="M0 0 C1.76462683 3.08809695 2 4.23312136 2 8 C2.99 8.33 3.98 8.66 5 9 C2.69 9 0.38 9 -2 9 C-1.34 6.69 -0.68 4.38 0 2 C-0.66 1.67 -1.32 1.34 -2 1 C-1.34 0.67 -0.68 0.34 0 0 Z " fill="#FAFBFE" transform="translate(376,147)"/>
<path d="M0 0 C1 2 1 2 0.125 5 C-1 8 -1 8 -2 10 C-2.33 9.01 -2.66 8.02 -3 7 C-4.65 7 -6.3 7 -8 7 C-7.13375 6.6596875 -7.13375 6.6596875 -6.25 6.3125 C-3.4336339 4.66961977 -1.91922886 2.60466773 0 0 Z " fill="#D99040" transform="translate(123,86)"/>
<path d="M0 0 C0.99 0.33 1.98 0.66 3 1 C2.34 1.66 1.68 2.32 1 3 C1.99 3.66 2.98 4.32 4 5 C1.1875 5.625 1.1875 5.625 -2 6 C-2.99 5.34 -3.98 4.68 -5 4 C-2.6875 1.9375 -2.6875 1.9375 0 0 Z " fill="#E0903C" transform="translate(143,72)"/>
<path d="M0 0 C1.65 0.33 3.3 0.66 5 1 C4.67 2.65 4.34 4.3 4 6 C2.35 5.67 0.7 5.34 -1 5 C-0.67 3.35 -0.34 1.7 0 0 Z " fill="#FB841D" transform="translate(182,145)"/>
<path d="M0 0 C2.72647685 2.35468455 3.98756342 4.5408417 5 8 C4.546875 10.16015625 4.546875 10.16015625 4 12 C3.32645501 10.56570999 2.66140299 9.12742943 2 7.6875 C1.62875 6.88699219 1.2575 6.08648437 0.875 5.26171875 C0 3 0 3 0 0 Z " fill="#EAF2F5" transform="translate(469,133)"/>
<path d="M0 0 C0 0.66 0 1.32 0 2 C-0.66 2 -1.32 2 -2 2 C-2.33 2.99 -2.66 3.98 -3 5 C-4.32 4.34 -5.64 3.68 -7 3 C-6.67 2.01 -6.34 1.02 -6 0 C-3 -1 -3 -1 0 0 Z " fill="#EFF0F1" transform="translate(303,131)"/>
<path d="M0 0 C0.66 0 1.32 0 2 0 C2 0.99 2 1.98 2 3 C1.34 3 0.68 3 0 3 C0 3.66 0 4.32 0 5 C-0.66 5 -1.32 5 -2 5 C-2 6.32 -2 7.64 -2 9 C-2.99 9 -3.98 9 -5 9 C-3.7580393 5.56072421 -2.44259716 2.74792181 0 0 Z " fill="#F98520" transform="translate(121,98)"/>
<path d="M0 0 C0.66 1.32 1.32 2.64 2 4 C0 7 0 7 -2.125 7.6875 C-2.74375 7.790625 -3.3625 7.89375 -4 8 C-2.25 2.25 -2.25 2.25 0 0 Z " fill="#BA8239" transform="translate(131,91)"/>
<path d="M0 0 C1.98 0 3.96 0 6 0 C4.35 1.98 2.7 3.96 1 6 C-0.0625 4.125 -0.0625 4.125 -1 2 C-0.67 1.34 -0.34 0.68 0 0 Z " fill="#EC8832" transform="translate(189,182)"/>
<path d="M0 0 C1.98 0.66 3.96 1.32 6 2 C6 2.66 6 3.32 6 4 C4.02 4 2.04 4 0 4 C0 2.68 0 1.36 0 0 Z M-1 4 C-1 4.99 -1 5.98 -1 7 C-1.99 7.495 -1.99 7.495 -3 8 C-2.34 6.68 -1.68 5.36 -1 4 Z " fill="#FA8215" transform="translate(189,178)"/>
<path d="M0 0 C1 4 1 4 0.00390625 5.703125 C-1.33072917 7.13541667 -2.66536458 8.56770833 -4 10 C-4.66 9.67 -5.32 9.34 -6 9 C-4.02 6.03 -2.04 3.06 0 0 Z " fill="#D88634" transform="translate(189,155)"/>
<path d="M0 0 C1.32 0 2.64 0 4 0 C2.8141763 3.37503669 1.72426311 5.64722731 -1 8 C-1.33 6.35 -1.66 4.7 -2 3 C-1.34 3 -0.68 3 0 3 C0 2.01 0 1.02 0 0 Z " fill="#E48835" transform="translate(197,152)"/>
<path d="M0 0 C0.99 0.33 1.98 0.66 3 1 C3.99 0.67 4.98 0.34 6 0 C6.33 0.66 6.66 1.32 7 2 C6.34 2 5.68 2 5 2 C5.33 4.31 5.66 6.62 6 9 C3.59927045 6.11912454 1.52708963 3.43595166 0 0 Z " fill="#ED8831" transform="translate(183,72)"/>
<path d="M0 0 C0 3 0 3 -1 5 C-0.34 5.33 0.32 5.66 1 6 C0.01 6.99 -0.98 7.98 -2 9 C-2.66 8.34 -3.32 7.68 -4 7 C-2.92598892 4.08482708 -2.22189824 2.22189824 0 0 Z " fill="#EA8C23" transform="translate(198,166)"/>
<path d="M0 0 C1.98 0 3.96 0 6 0 C5.34 1.65 4.68 3.3 4 5 C2.35 4.01 0.7 3.02 -1 2 C-0.67 1.34 -0.34 0.68 0 0 Z " fill="#FA821A" transform="translate(186,162)"/>
<path d="M0 0 C0 3.29223784 -0.50518132 5.08510357 -2 8 C-4.125 9.3125 -4.125 9.3125 -6 10 C-4.6302836 6.00499382 -2.74277578 3.19990508 0 0 Z " fill="#DB883D" transform="translate(205,156)"/>
<path d="M0 0 C2.64752004 2.57784846 4.94432065 4.91648098 7 8 C6.67 8.99 6.34 9.98 6 11 C6 10.34 6 9.68 6 9 C5.01 8.67 4.02 8.34 3 8 C1.76132839 5.38502661 0.91496017 2.74488051 0 0 Z " fill="#DD8A3D" transform="translate(175,76)"/>
<path d="M0 0 C0.78375 0.04125 1.5675 0.0825 2.375 0.125 C2.375 1.445 2.375 2.765 2.375 4.125 C0.065 3.465 -2.245 2.805 -4.625 2.125 C-2.625 0.125 -2.625 0.125 0 0 Z " fill="#F38321" transform="translate(151.625,170.875)"/>
<path d="M0 0 C0.33 0 0.66 0 1 0 C0.67 2.97 0.34 5.94 0 9 C-1.32 9.33 -2.64 9.66 -4 10 C-2.8905928 6.51329166 -1.73662334 3.22515763 0 0 Z " fill="#DC902C" transform="translate(168,140)"/>
<path d="M0 0 C1.15866723 4.63466892 0.70010994 7.33260039 0 12 C-0.99 12 -1.98 12 -3 12 C-2.01 8.04 -1.02 4.08 0 0 Z " fill="#DC8B3B" transform="translate(189,120)"/>
<path d="M0 0 C1.32 0 2.64 0 4 0 C3.34 3.3 2.68 6.6 2 10 C1.67 10 1.34 10 1 10 C0.67 6.7 0.34 3.4 0 0 Z " fill="#E28835" transform="translate(98,128)"/>
<path d="M0 0 C0.33 1.32 0.66 2.64 1 4 C-1.475 5.485 -1.475 5.485 -4 7 C-4.33 6.01 -4.66 5.02 -5 4 C-3.35 2.68 -1.7 1.36 0 0 Z " fill="#F18017" transform="translate(116,108)"/>
<path d="M0 0 C0.99 0.33 1.98 0.66 3 1 C2.74438677 3.3431213 2.40729228 5.67843403 2 8 C1.01 8.495 1.01 8.495 0 9 C0 6.03 0 3.06 0 0 Z " fill="#F4821B" transform="translate(211,94)"/>
<path d="M0 0 C1 2 1 2 0.9375 3.875 C-0.48885027 7.10806062 -3.03834436 8.23560941 -6 10 C-4.34832443 6.4213696 -2.21713508 3.25179812 0 0 Z " fill="#D18639" transform="translate(175,154)"/>
<path d="M0 0 C0.99 0.33 1.98 0.66 3 1 C1.92598892 3.91517292 1.22189824 5.77810176 -1 8 C-1.625 5.6875 -1.625 5.6875 -2 3 C-1.34 2.01 -0.68 1.02 0 0 Z " fill="#EE892E" transform="translate(108,107)"/>
<path d="M0 0 C-0.3125 1.9375 -0.3125 1.9375 -1 4 C-1.99 4.33 -2.98 4.66 -4 5 C-4.66 3.68 -5.32 2.36 -6 1 C-3 0 -3 0 0 0 Z " fill="#F9841B" transform="translate(141,91)"/>
<path d="M0 0 C2.31 0 4.62 0 7 0 C6.01 1.485 6.01 1.485 5 3 C2.375 3.1875 2.375 3.1875 0 3 C0 2.01 0 1.02 0 0 Z " fill="#FE8416" transform="translate(175,63)"/>
<path d="M0 0 C1.65 0 3.3 0 5 0 C0.375 4.875 0.375 4.875 -3 6 C-3 5.34 -3 4.68 -3 4 C-2.34 4 -1.68 4 -1 4 C-0.67 2.68 -0.34 1.36 0 0 Z " fill="#E38D39" transform="translate(195,197)"/>
<path d="M0 0 C0.99 0.33 1.98 0.66 3 1 C1.35830472 3.02054804 -0.30911778 5.02043058 -2 7 C-2.33 7 -2.66 7 -3 7 C-3 5.35 -3 3.7 -3 2 C-2.34 2 -1.68 2 -1 2 C-0.67 1.34 -0.34 0.68 0 0 Z " fill="#E48A31" transform="translate(207,165)"/>
<path d="M0 0 C0.66 0 1.32 0 2 0 C1.1875 2.9375 1.1875 2.9375 0 6 C-0.99 6.33 -1.98 6.66 -3 7 C-2.67 5.35 -2.34 3.7 -2 2 C-1.34 2 -0.68 2 0 2 C0 1.34 0 0.68 0 0 Z " fill="#DD852E" transform="translate(159,146)"/>
<path d="M0 0 C1.0326802 2.78823655 1.04509293 3.8677274 0.0625 6.75 C-0.288125 7.4925 -0.63875 8.235 -1 9 C-1.99 9 -2.98 9 -4 9 C-2.80100302 5.9168649 -1.52299523 2.93720508 0 0 Z " fill="#D88335" transform="translate(194,146)"/>
<path d="M0 0 C0.33 0 0.66 0 1 0 C1.36923077 5.41538462 1.36923077 5.41538462 -0.5 8.375 C-0.995 8.91125 -1.49 9.4475 -2 10 C-3.39195915 5.82412255 -1.82323219 3.86525224 0 0 Z " fill="#D37F30" transform="translate(110,112)"/>
<path d="M0 0 C0.99 0 1.98 0 3 0 C3.33 1.32 3.66 2.64 4 4 C2.68 4 1.36 4 0 4 C-0.33 4.66 -0.66 5.32 -1 6 C-1.042721 4.33388095 -1.04063832 2.66617115 -1 1 C-0.67 0.67 -0.34 0.34 0 0 Z " fill="#DA7F28" transform="translate(123,105)"/>
<path d="M0 0 C2.25245881 2.68841859 3.88213958 4.64641875 5 8 C4.01 7.67 3.02 7.34 2 7 C2 6.34 2 5.68 2 5 C1.34 5 0.68 5 0 5 C-0.5625 3.0625 -0.5625 3.0625 -1 1 C-0.67 0.67 -0.34 0.34 0 0 Z " fill="#EDF2F3" transform="translate(249,143)"/>
<path d="M0 0 C0.66 0.66 1.32 1.32 2 2 C1.625 5.625 1.625 5.625 1 9 C0.34 8.67 -0.32 8.34 -1 8 C-1.04241723 5.66705225 -1.04092937 3.33297433 -1 1 C-0.67 0.67 -0.34 0.34 0 0 Z " fill="#EAEEF1" transform="translate(382,137)"/>
<path d="M0 0 C1.875 0.1875 1.875 0.1875 4 1 C5.25 3.5625 5.25 3.5625 6 6 C5.01 6.495 5.01 6.495 4 7 C2.02 3.535 2.02 3.535 0 0 Z " fill="#EFF1F6" transform="translate(293,135)"/>
<path d="M0 0 C0.99 0 1.98 0 3 0 C3 2.31 3 4.62 3 7 C2.34 7 1.68 7 1 7 C0.67 4.69 0.34 2.38 0 0 Z " fill="#D6862F" transform="translate(149,130)"/>
</svg>
